<svg width="457" height="282" viewBox="0 0 457 282" fill="none" xmlns="http://www.w3.org/2000/svg">
<g filter="url(#filter0_d_0_1)">
<rect x="4" y="4" width="449" height="270" rx="30" fill="#121212"/>
</g>
<path d="M29.712 46L39.696 23.6H44.816L54.832 46H49.392L41.2 26.224H43.248L35.024 46H29.712ZM34.704 41.2L36.08 37.264H47.6L49.008 41.2H34.704ZM66.98 46.256C65.4653 46.256 64.164 45.936 63.076 45.296C61.988 44.656 61.156 43.6853 60.58 42.384C60.004 41.0613 59.716 39.3973 59.716 37.392C59.716 35.3653 60.0147 33.7013 60.612 32.4C61.2307 31.0987 62.084 30.128 63.172 29.488C64.26 28.848 65.5293 28.528 66.98 28.528C68.6013 28.528 70.052 28.8907 71.332 29.616C72.6333 30.3413 73.6573 31.3653 74.404 32.688C75.172 34.0107 75.556 35.5787 75.556 37.392C75.556 39.184 75.172 40.7413 74.404 42.064C73.6573 43.3867 72.6333 44.4213 71.332 45.168C70.052 45.8933 68.6013 46.256 66.98 46.256ZM56.804 46V22.256H61.796V32.272L61.476 37.36L61.572 42.48V46H56.804ZM66.116 42.16C66.948 42.16 67.684 41.968 68.324 41.584C68.9853 41.2 69.508 40.656 69.892 39.952C70.2973 39.2267 70.5 38.3733 70.5 37.392C70.5 36.3893 70.2973 35.536 69.892 34.832C69.508 34.128 68.9853 33.584 68.324 33.2C67.684 32.816 66.948 32.624 66.116 32.624C65.284 32.624 64.5373 32.816 63.876 33.2C63.2147 33.584 62.692 34.128 62.308 34.832C61.924 35.536 61.732 36.3893 61.732 37.392C61.732 38.3733 61.924 39.2267 62.308 39.952C62.692 40.656 63.2147 41.2 63.876 41.584C64.5373 41.968 65.284 42.16 66.116 42.16ZM78.8978 46V28.784H83.6658V33.648L82.9938 32.24C83.5058 31.024 84.3271 30.1067 85.4578 29.488C86.5884 28.848 87.9644 28.528 89.5858 28.528V33.136C89.3724 33.1147 89.1804 33.104 89.0098 33.104C88.8391 33.0827 88.6578 33.072 88.4658 33.072C87.1004 33.072 85.9911 33.4667 85.1378 34.256C84.3058 35.024 83.8898 36.2293 83.8898 37.872V46H78.8978ZM92.5853 46V28.784H97.5773V46H92.5853ZM95.0813 26.384C94.1639 26.384 93.4173 26.1173 92.8413 25.584C92.2653 25.0507 91.9773 24.3893 91.9773 23.6C91.9773 22.8107 92.2653 22.1493 92.8413 21.616C93.4173 21.0827 94.1639 20.816 95.0813 20.816C95.9986 20.816 96.7453 21.072 97.3213 21.584C97.8973 22.0747 98.1853 22.7147 98.1853 23.504C98.1853 24.336 97.8973 25.0293 97.3213 25.584C96.7666 26.1173 96.0199 26.384 95.0813 26.384ZM102.21 46V22.256H107.202V46H102.21Z" fill="white"/>
<path opacity="0.88" d="M31.6815 88.4226V77.9226H33.6915L38.1615 85.3326H37.0965L41.4915 77.9226H43.4865L43.5165 88.4226H41.2365L41.2215 81.4176H41.6415L38.1315 87.3126H37.0365L33.4515 81.4176H33.9615V88.4226H31.6815Z" fill="white"/>
<path opacity="0.88" d="M35.7165 145.151C34.7565 145.151 33.9215 144.951 33.2115 144.551C32.5115 144.151 31.9715 143.566 31.5915 142.796C31.2115 142.026 31.0215 141.076 31.0215 139.946C31.0215 138.736 31.2465 137.711 31.6965 136.871C32.1565 136.031 32.7865 135.391 33.5865 134.951C34.3965 134.511 35.3265 134.291 36.3765 134.291C36.9365 134.291 37.4715 134.351 37.9815 134.471C38.4915 134.591 38.9315 134.771 39.3015 135.011L38.4015 136.796C38.1115 136.596 37.8015 136.461 37.4715 136.391C37.1415 136.311 36.7965 136.271 36.4365 136.271C35.5265 136.271 34.8065 136.546 34.2765 137.096C33.7465 137.646 33.4815 138.461 33.4815 139.541C33.4815 139.721 33.4815 139.921 33.4815 140.141C33.4915 140.361 33.5215 140.581 33.5715 140.801L32.8965 140.171C33.0865 139.781 33.3315 139.456 33.6315 139.196C33.9315 138.926 34.2865 138.726 34.6965 138.596C35.1165 138.456 35.5765 138.386 36.0765 138.386C36.7565 138.386 37.3665 138.521 37.9065 138.791C38.4465 139.061 38.8765 139.441 39.1965 139.931C39.5265 140.421 39.6915 140.996 39.6915 141.656C39.6915 142.366 39.5115 142.986 39.1515 143.516C38.8015 144.036 38.3265 144.441 37.7265 144.731C37.1365 145.011 36.4665 145.151 35.7165 145.151ZM35.5815 143.336C35.9215 143.336 36.2215 143.276 36.4815 143.156C36.7515 143.026 36.9615 142.841 37.1115 142.601C37.2615 142.361 37.3365 142.086 37.3365 141.776C37.3365 141.296 37.1715 140.916 36.8415 140.636C36.5215 140.346 36.0915 140.201 35.5515 140.201C35.1915 140.201 34.8765 140.271 34.6065 140.411C34.3365 140.541 34.1215 140.726 33.9615 140.966C33.8115 141.196 33.7365 141.466 33.7365 141.776C33.7365 142.076 33.8115 142.346 33.9615 142.586C34.1115 142.816 34.3215 143.001 34.5915 143.141C34.8615 143.271 35.1915 143.336 35.5815 143.336Z" fill="white"/>
<path opacity="0.88" d="M32.6415 173.246V163.646L33.6915 164.696H30.5415V162.746H35.0715V173.246H32.6415ZM40.3005 173.426C39.5705 173.426 38.8455 173.331 38.1255 173.141C37.4055 172.941 36.7955 172.661 36.2955 172.301L37.2405 170.441C37.6405 170.731 38.1055 170.961 38.6355 171.131C39.1655 171.301 39.7005 171.386 40.2405 171.386C40.8505 171.386 41.3305 171.266 41.6805 171.026C42.0305 170.786 42.2055 170.456 42.2055 170.036C42.2055 169.636 42.0505 169.321 41.7405 169.091C41.4305 168.861 40.9305 168.746 40.2405 168.746H39.1305V167.141L42.0555 163.826L42.3255 164.696H36.8205V162.746H44.1705V164.321L41.2605 167.636L40.0305 166.931H40.7355C42.0255 166.931 43.0005 167.221 43.6605 167.801C44.3205 168.381 44.6505 169.126 44.6505 170.036C44.6505 170.626 44.4955 171.181 44.1855 171.701C43.8755 172.211 43.4005 172.626 42.7605 172.946C42.1205 173.266 41.3005 173.426 40.3005 173.426Z" fill="white"/>
<path opacity="0.88" d="M30.9315 200.342V198.767L34.9815 194.942C35.3015 194.652 35.5365 194.392 35.6865 194.162C35.8365 193.932 35.9365 193.722 35.9865 193.532C36.0465 193.342 36.0765 193.167 36.0765 193.007C36.0765 192.587 35.9315 192.267 35.6415 192.047C35.3615 191.817 34.9465 191.702 34.3965 191.702C33.9565 191.702 33.5465 191.787 33.1665 191.957C32.7965 192.127 32.4815 192.392 32.2215 192.752L30.4515 191.612C30.8515 191.012 31.4115 190.537 32.1315 190.187C32.8515 189.837 33.6815 189.662 34.6215 189.662C35.4015 189.662 36.0815 189.792 36.6615 190.052C37.2515 190.302 37.7065 190.657 38.0265 191.117C38.3565 191.577 38.5215 192.127 38.5215 192.767C38.5215 193.107 38.4765 193.447 38.3865 193.787C38.3065 194.117 38.1365 194.467 37.8765 194.837C37.6265 195.207 37.2565 195.622 36.7665 196.082L33.4065 199.247L32.9415 198.362H38.8665V200.342H30.9315ZM44.3692 200.522C43.5092 200.522 42.7392 200.312 42.0592 199.892C41.3792 199.462 40.8442 198.842 40.4542 198.032C40.0642 197.222 39.8692 196.242 39.8692 195.092C39.8692 193.942 40.0642 192.962 40.4542 192.152C40.8442 191.342 41.3792 190.727 42.0592 190.307C42.7392 189.877 43.5092 189.662 44.3692 189.662C45.2392 189.662 46.0092 189.877 46.6792 190.307C47.3592 190.727 47.8942 191.342 48.2842 192.152C48.6742 192.962 48.8692 193.942 48.8692 195.092C48.8692 196.242 48.6742 197.222 48.2842 198.032C47.8942 198.842 47.3592 199.462 46.6792 199.892C46.0092 200.312 45.2392 200.522 44.3692 200.522ZM44.3692 198.467C44.7792 198.467 45.1342 198.352 45.4342 198.122C45.7442 197.892 45.9842 197.527 46.1542 197.027C46.3342 196.527 46.4242 195.882 46.4242 195.092C46.4242 194.302 46.3342 193.657 46.1542 193.157C45.9842 192.657 45.7442 192.292 45.4342 192.062C45.1342 191.832 44.7792 191.717 44.3692 191.717C43.9692 191.717 43.6142 191.832 43.3042 192.062C43.0042 192.292 42.7642 192.657 42.5842 193.157C42.4142 193.657 42.3292 194.302 42.3292 195.092C42.3292 195.882 42.4142 196.527 42.5842 197.027C42.7642 197.527 43.0042 197.892 43.3042 198.122C43.6142 198.352 43.9692 198.467 44.3692 198.467Z" fill="white"/>
<path opacity="0.88" d="M30.9315 228.616V227.041L34.9815 223.216C35.3015 222.926 35.5365 222.666 35.6865 222.436C35.8365 222.206 35.9365 221.996 35.9865 221.806C36.0465 221.616 36.0765 221.441 36.0765 221.281C36.0765 220.861 35.9315 220.541 35.6415 220.321C35.3615 220.091 34.9465 219.976 34.3965 219.976C33.9565 219.976 33.5465 220.061 33.1665 220.231C32.7965 220.401 32.4815 220.666 32.2215 221.026L30.4515 219.886C30.8515 219.286 31.4115 218.811 32.1315 218.461C32.8515 218.111 33.6815 217.936 34.6215 217.936C35.4015 217.936 36.0815 218.066 36.6615 218.326C37.2515 218.576 37.7065 218.931 38.0265 219.391C38.3565 219.851 38.5215 220.401 38.5215 221.041C38.5215 221.381 38.4765 221.721 38.3865 222.061C38.3065 222.391 38.1365 222.741 37.8765 223.111C37.6265 223.481 37.2565 223.896 36.7665 224.356L33.4065 227.521L32.9415 226.636H38.8665V228.616H30.9315ZM41.5492 228.616L45.7792 219.046L46.4092 220.096H40.7542L41.8342 218.956V221.806H39.6742V218.116H48.0892V219.691L44.1892 228.616H41.5492Z" fill="white"/>
<path opacity="0.88" d="M101.103 88.4226V79.9026H97.7429V77.9226H106.893V79.9026H103.533V88.4226H101.103Z" fill="white"/>
<path opacity="0.88" d="M99.9479 144.971L104.178 135.401L104.808 136.451H99.1529L100.233 135.311V138.161H98.0729V134.471H106.488V136.046L102.588 144.971H99.9479Z" fill="white"/>
<path opacity="0.88" d="M99.8879 173.246V163.646L100.938 164.696H97.7879V162.746H102.318V173.246H99.8879ZM104.022 171.041V169.406L108.972 162.746H111.522L106.677 169.406L105.492 169.061H113.757V171.041H104.022ZM109.677 173.246V171.041L109.752 169.061V167.096H112.047V173.246H109.677Z" fill="white"/>
<path opacity="0.88" d="M98.1779 200.342V198.767L102.228 194.942C102.548 194.652 102.783 194.392 102.933 194.162C103.083 193.932 103.183 193.722 103.233 193.532C103.293 193.342 103.323 193.167 103.323 193.007C103.323 192.587 103.178 192.267 102.888 192.047C102.608 191.817 102.193 191.702 101.643 191.702C101.203 191.702 100.793 191.787 100.413 191.957C100.043 192.127 99.7279 192.392 99.4679 192.752L97.6979 191.612C98.0979 191.012 98.6579 190.537 99.3779 190.187C100.098 189.837 100.928 189.662 101.868 189.662C102.648 189.662 103.328 189.792 103.908 190.052C104.498 190.302 104.953 190.657 105.273 191.117C105.603 191.577 105.768 192.127 105.768 192.767C105.768 193.107 105.723 193.447 105.633 193.787C105.553 194.117 105.383 194.467 105.123 194.837C104.873 195.207 104.503 195.622 104.013 196.082L100.653 199.247L100.188 198.362H106.113V200.342H98.1779ZM108.736 200.342V190.742L109.786 191.792H106.636V189.842H111.166V200.342H108.736Z" fill="white"/>
<path opacity="0.88" d="M98.1779 228.616V227.041L102.228 223.216C102.548 222.926 102.783 222.666 102.933 222.436C103.083 222.206 103.183 221.996 103.233 221.806C103.293 221.616 103.323 221.441 103.323 221.281C103.323 220.861 103.178 220.541 102.888 220.321C102.608 220.091 102.193 219.976 101.643 219.976C101.203 219.976 100.793 220.061 100.413 220.231C100.043 220.401 99.7279 220.666 99.4679 221.026L97.6979 219.886C98.0979 219.286 98.6579 218.811 99.3779 218.461C100.098 218.111 100.928 217.936 101.868 217.936C102.648 217.936 103.328 218.066 103.908 218.326C104.498 218.576 104.953 218.931 105.273 219.391C105.603 219.851 105.768 220.401 105.768 221.041C105.768 221.381 105.723 221.721 105.633 222.061C105.553 222.391 105.383 222.741 105.123 223.111C104.873 223.481 104.503 223.896 104.013 224.356L100.653 227.521L100.188 226.636H106.113V228.616H98.1779ZM111.466 228.796C110.586 228.796 109.816 228.666 109.156 228.406C108.496 228.136 107.981 227.761 107.611 227.281C107.241 226.791 107.056 226.221 107.056 225.571C107.056 224.921 107.236 224.371 107.596 223.921C107.966 223.461 108.481 223.116 109.141 222.886C109.801 222.646 110.576 222.526 111.466 222.526C112.366 222.526 113.146 222.646 113.806 222.886C114.476 223.116 114.991 223.461 115.351 223.921C115.721 224.371 115.906 224.921 115.906 225.571C115.906 226.221 115.721 226.791 115.351 227.281C114.981 227.761 114.461 228.136 113.791 228.406C113.131 228.666 112.356 228.796 111.466 228.796ZM111.466 227.011C112.076 227.011 112.556 226.876 112.906 226.606C113.266 226.336 113.446 225.966 113.446 225.496C113.446 225.026 113.266 224.661 112.906 224.401C112.556 224.131 112.076 223.996 111.466 223.996C110.866 223.996 110.391 224.131 110.041 224.401C109.691 224.661 109.516 225.026 109.516 225.496C109.516 225.966 109.691 226.336 110.041 226.606C110.391 226.876 110.866 227.011 111.466 227.011ZM111.466 223.756C110.656 223.756 109.946 223.646 109.336 223.426C108.736 223.206 108.266 222.886 107.926 222.466C107.596 222.036 107.431 221.526 107.431 220.936C107.431 220.316 107.601 219.786 107.941 219.346C108.281 218.896 108.756 218.551 109.366 218.311C109.976 218.061 110.676 217.936 111.466 217.936C112.276 217.936 112.981 218.061 113.581 218.311C114.191 218.551 114.666 218.896 115.006 219.346C115.356 219.786 115.531 220.316 115.531 220.936C115.531 221.526 115.361 222.036 115.021 222.466C114.691 222.886 114.221 223.206 113.611 223.426C113.001 223.646 112.286 223.756 111.466 223.756ZM111.466 222.331C111.976 222.331 112.376 222.216 112.666 221.986C112.966 221.756 113.116 221.441 113.116 221.041C113.116 220.621 112.961 220.296 112.651 220.066C112.351 219.836 111.956 219.721 111.466 219.721C110.986 219.721 110.596 219.836 110.296 220.066C109.996 220.296 109.846 220.621 109.846 221.041C109.846 221.441 109.991 221.756 110.281 221.986C110.571 222.216 110.966 222.331 111.466 222.331Z" fill="white"/>
<path opacity="0.88" d="M160.543 88.4226L157.108 77.9226H159.628L162.613 87.2226H161.353L164.473 77.9226H166.723L169.723 87.2226H168.508L171.568 77.9226H173.893L170.458 88.4226H167.848L165.193 80.2626H165.883L163.153 88.4226H160.543Z" fill="white"/>
<path opacity="0.88" d="M158.983 116.697V107.097L160.033 108.147H156.883V106.197H161.413V116.697H158.983Z" fill="white"/>
<path opacity="0.88" d="M161.713 145.151C160.833 145.151 160.063 145.021 159.403 144.761C158.743 144.491 158.228 144.116 157.858 143.636C157.488 143.146 157.303 142.576 157.303 141.926C157.303 141.276 157.483 140.726 157.843 140.276C158.213 139.816 158.728 139.471 159.388 139.241C160.048 139.001 160.823 138.881 161.713 138.881C162.613 138.881 163.393 139.001 164.053 139.241C164.723 139.471 165.238 139.816 165.598 140.276C165.968 140.726 166.153 141.276 166.153 141.926C166.153 142.576 165.968 143.146 165.598 143.636C165.228 144.116 164.708 144.491 164.038 144.761C163.378 145.021 162.603 145.151 161.713 145.151ZM161.713 143.366C162.323 143.366 162.803 143.231 163.153 142.961C163.513 142.691 163.693 142.321 163.693 141.851C163.693 141.381 163.513 141.016 163.153 140.756C162.803 140.486 162.323 140.351 161.713 140.351C161.113 140.351 160.638 140.486 160.288 140.756C159.938 141.016 159.763 141.381 159.763 141.851C159.763 142.321 159.938 142.691 160.288 142.961C160.638 143.231 161.113 143.366 161.713 143.366ZM161.713 140.111C160.903 140.111 160.193 140.001 159.583 139.781C158.983 139.561 158.513 139.241 158.173 138.821C157.843 138.391 157.678 137.881 157.678 137.291C157.678 136.671 157.848 136.141 158.188 135.701C158.528 135.251 159.003 134.906 159.613 134.666C160.223 134.416 160.923 134.291 161.713 134.291C162.523 134.291 163.228 134.416 163.828 134.666C164.438 134.906 164.913 135.251 165.253 135.701C165.603 136.141 165.778 136.671 165.778 137.291C165.778 137.881 165.608 138.391 165.268 138.821C164.938 139.241 164.468 139.561 163.858 139.781C163.248 140.001 162.533 140.111 161.713 140.111ZM161.713 138.686C162.223 138.686 162.623 138.571 162.913 138.341C163.213 138.111 163.363 137.796 163.363 137.396C163.363 136.976 163.208 136.651 162.898 136.421C162.598 136.191 162.203 136.076 161.713 136.076C161.233 136.076 160.843 136.191 160.543 136.421C160.243 136.651 160.093 136.976 160.093 137.396C160.093 137.796 160.238 138.111 160.528 138.341C160.818 138.571 161.213 138.686 161.713 138.686Z" fill="white"/>
<path opacity="0.88" d="M158.983 173.246V163.646L160.033 164.696H156.883V162.746H161.413V173.246H158.983ZM166.807 173.426C166.077 173.426 165.352 173.331 164.632 173.141C163.922 172.941 163.312 172.661 162.802 172.301L163.762 170.441C164.162 170.731 164.622 170.961 165.142 171.131C165.672 171.301 166.207 171.386 166.747 171.386C167.357 171.386 167.837 171.266 168.187 171.026C168.537 170.786 168.712 170.451 168.712 170.021C168.712 169.751 168.642 169.511 168.502 169.301C168.362 169.091 168.112 168.931 167.752 168.821C167.402 168.711 166.907 168.656 166.267 168.656H163.582L164.122 162.746H170.527V164.696H164.992L166.252 163.586L165.877 167.801L164.617 166.691H166.837C167.877 166.691 168.712 166.836 169.342 167.126C169.982 167.406 170.447 167.791 170.737 168.281C171.027 168.771 171.172 169.326 171.172 169.946C171.172 170.566 171.017 171.141 170.707 171.671C170.397 172.191 169.917 172.616 169.267 172.946C168.627 173.266 167.807 173.426 166.807 173.426Z" fill="white"/>
<path opacity="0.88" d="M157.273 200.342V198.767L161.323 194.942C161.643 194.652 161.878 194.392 162.028 194.162C162.178 193.932 162.278 193.722 162.328 193.532C162.388 193.342 162.418 193.167 162.418 193.007C162.418 192.587 162.273 192.267 161.983 192.047C161.703 191.817 161.288 191.702 160.738 191.702C160.298 191.702 159.888 191.787 159.508 191.957C159.138 192.127 158.823 192.392 158.563 192.752L156.793 191.612C157.193 191.012 157.753 190.537 158.473 190.187C159.193 189.837 160.023 189.662 160.963 189.662C161.743 189.662 162.423 189.792 163.003 190.052C163.593 190.302 164.048 190.657 164.368 191.117C164.698 191.577 164.863 192.127 164.863 192.767C164.863 193.107 164.818 193.447 164.728 193.787C164.648 194.117 164.478 194.467 164.218 194.837C163.968 195.207 163.598 195.622 163.108 196.082L159.748 199.247L159.283 198.362H165.208V200.342H157.273ZM166.121 200.342V198.767L170.171 194.942C170.491 194.652 170.726 194.392 170.876 194.162C171.026 193.932 171.126 193.722 171.176 193.532C171.236 193.342 171.266 193.167 171.266 193.007C171.266 192.587 171.121 192.267 170.831 192.047C170.551 191.817 170.136 191.702 169.586 191.702C169.146 191.702 168.736 191.787 168.356 191.957C167.986 192.127 167.671 192.392 167.411 192.752L165.641 191.612C166.041 191.012 166.601 190.537 167.321 190.187C168.041 189.837 168.871 189.662 169.811 189.662C170.591 189.662 171.271 189.792 171.851 190.052C172.441 190.302 172.896 190.657 173.216 191.117C173.546 191.577 173.711 192.127 173.711 192.767C173.711 193.107 173.666 193.447 173.576 193.787C173.496 194.117 173.326 194.467 173.066 194.837C172.816 195.207 172.446 195.622 171.956 196.082L168.596 199.247L168.131 198.362H174.056V200.342H166.121Z" fill="white"/>
<path opacity="0.88" d="M157.273 228.616V227.041L161.323 223.216C161.643 222.926 161.878 222.666 162.028 222.436C162.178 222.206 162.278 221.996 162.328 221.806C162.388 221.616 162.418 221.441 162.418 221.281C162.418 220.861 162.273 220.541 161.983 220.321C161.703 220.091 161.288 219.976 160.738 219.976C160.298 219.976 159.888 220.061 159.508 220.231C159.138 220.401 158.823 220.666 158.563 221.026L156.793 219.886C157.193 219.286 157.753 218.811 158.473 218.461C159.193 218.111 160.023 217.936 160.963 217.936C161.743 217.936 162.423 218.066 163.003 218.326C163.593 218.576 164.048 218.931 164.368 219.391C164.698 219.851 164.863 220.401 164.863 221.041C164.863 221.381 164.818 221.721 164.728 222.061C164.648 222.391 164.478 222.741 164.218 223.111C163.968 223.481 163.598 223.896 163.108 224.356L159.748 227.521L159.283 226.636H165.208V228.616H157.273ZM169.901 217.936C170.871 217.936 171.706 218.136 172.406 218.536C173.106 218.936 173.646 219.521 174.026 220.291C174.406 221.051 174.596 222.001 174.596 223.141C174.596 224.351 174.366 225.376 173.906 226.216C173.456 227.056 172.831 227.696 172.031 228.136C171.231 228.576 170.301 228.796 169.241 228.796C168.691 228.796 168.161 228.736 167.651 228.616C167.141 228.496 166.701 228.316 166.331 228.076L167.231 226.291C167.521 226.491 167.831 226.631 168.161 226.711C168.491 226.781 168.836 226.816 169.196 226.816C170.096 226.816 170.811 226.541 171.341 225.991C171.881 225.441 172.151 224.626 172.151 223.546C172.151 223.366 172.146 223.166 172.136 222.946C172.126 222.726 172.101 222.506 172.061 222.286L172.721 222.916C172.551 223.306 172.311 223.636 172.001 223.906C171.691 224.166 171.331 224.366 170.921 224.506C170.511 224.636 170.051 224.701 169.541 224.701C168.871 224.701 168.261 224.566 167.711 224.296C167.171 224.026 166.736 223.646 166.406 223.156C166.086 222.666 165.926 222.091 165.926 221.431C165.926 220.711 166.101 220.091 166.451 219.571C166.811 219.051 167.291 218.651 167.891 218.371C168.501 218.081 169.171 217.936 169.901 217.936ZM170.051 219.751C169.701 219.751 169.396 219.816 169.136 219.946C168.876 220.066 168.671 220.246 168.521 220.486C168.371 220.716 168.296 220.991 168.296 221.311C168.296 221.791 168.456 222.176 168.776 222.466C169.106 222.746 169.541 222.886 170.081 222.886C170.431 222.886 170.741 222.821 171.011 222.691C171.291 222.551 171.506 222.361 171.656 222.121C171.806 221.881 171.881 221.611 171.881 221.311C171.881 221.011 171.806 220.746 171.656 220.516C171.516 220.276 171.311 220.091 171.041 219.961C170.771 219.821 170.441 219.751 170.051 219.751Z" fill="white"/>
<path opacity="0.88" d="M231.52 88.4226V79.9026H228.16V77.9226H237.31V79.9026H233.95V88.4226H231.52Z" fill="white"/>
<path opacity="0.88" d="M228.595 116.697V115.122L232.645 111.297C232.965 111.007 233.2 110.747 233.35 110.517C233.5 110.287 233.6 110.077 233.65 109.887C233.71 109.697 233.74 109.522 233.74 109.362C233.74 108.942 233.595 108.622 233.305 108.402C233.025 108.172 232.61 108.057 232.06 108.057C231.62 108.057 231.21 108.142 230.83 108.312C230.46 108.482 230.145 108.747 229.885 109.107L228.115 107.967C228.515 107.367 229.075 106.892 229.795 106.542C230.515 106.192 231.345 106.017 232.285 106.017C233.065 106.017 233.745 106.147 234.325 106.407C234.915 106.657 235.37 107.012 235.69 107.472C236.02 107.932 236.185 108.482 236.185 109.122C236.185 109.462 236.14 109.802 236.05 110.142C235.97 110.472 235.8 110.822 235.54 111.192C235.29 111.562 234.92 111.977 234.43 112.437L231.07 115.602L230.605 114.717H236.53V116.697H228.595Z" fill="white"/>
<path opacity="0.88" d="M232.375 134.291C233.345 134.291 234.18 134.491 234.88 134.891C235.58 135.291 236.12 135.876 236.5 136.646C236.88 137.406 237.07 138.356 237.07 139.496C237.07 140.706 236.84 141.731 236.38 142.571C235.93 143.411 235.305 144.051 234.505 144.491C233.705 144.931 232.775 145.151 231.715 145.151C231.165 145.151 230.635 145.091 230.125 144.971C229.615 144.851 229.175 144.671 228.805 144.431L229.705 142.646C229.995 142.846 230.305 142.986 230.635 143.066C230.965 143.136 231.31 143.171 231.67 143.171C232.57 143.171 233.285 142.896 233.815 142.346C234.355 141.796 234.625 140.981 234.625 139.901C234.625 139.721 234.62 139.521 234.61 139.301C234.6 139.081 234.575 138.861 234.535 138.641L235.195 139.271C235.025 139.661 234.785 139.991 234.475 140.261C234.165 140.521 233.805 140.721 233.395 140.861C232.985 140.991 232.525 141.056 232.015 141.056C231.345 141.056 230.735 140.921 230.185 140.651C229.645 140.381 229.21 140.001 228.88 139.511C228.56 139.021 228.4 138.446 228.4 137.786C228.4 137.066 228.575 136.446 228.925 135.926C229.285 135.406 229.765 135.006 230.365 134.726C230.975 134.436 231.645 134.291 232.375 134.291ZM232.525 136.106C232.175 136.106 231.87 136.171 231.61 136.301C231.35 136.421 231.145 136.601 230.995 136.841C230.845 137.071 230.77 137.346 230.77 137.666C230.77 138.146 230.93 138.531 231.25 138.821C231.58 139.101 232.015 139.241 232.555 139.241C232.905 139.241 233.215 139.176 233.485 139.046C233.765 138.906 233.98 138.716 234.13 138.476C234.28 138.236 234.355 137.966 234.355 137.666C234.355 137.366 234.28 137.101 234.13 136.871C233.99 136.631 233.785 136.446 233.515 136.316C233.245 136.176 232.915 136.106 232.525 136.106Z" fill="white"/>
<path opacity="0.88" d="M230.305 173.246V163.646L231.355 164.696H228.205V162.746H232.735V173.246H230.305ZM239.254 173.426C238.294 173.426 237.459 173.226 236.749 172.826C236.049 172.426 235.509 171.841 235.129 171.071C234.749 170.301 234.559 169.351 234.559 168.221C234.559 167.011 234.784 165.986 235.234 165.146C235.694 164.306 236.324 163.666 237.124 163.226C237.934 162.786 238.864 162.566 239.914 162.566C240.474 162.566 241.009 162.626 241.519 162.746C242.029 162.866 242.469 163.046 242.839 163.286L241.939 165.071C241.649 164.871 241.339 164.736 241.009 164.666C240.679 164.586 240.334 164.546 239.974 164.546C239.064 164.546 238.344 164.821 237.814 165.371C237.284 165.921 237.019 166.736 237.019 167.816C237.019 167.996 237.019 168.196 237.019 168.416C237.029 168.636 237.059 168.856 237.109 169.076L236.434 168.446C236.624 168.056 236.869 167.731 237.169 167.471C237.469 167.201 237.824 167.001 238.234 166.871C238.654 166.731 239.114 166.661 239.614 166.661C240.294 166.661 240.904 166.796 241.444 167.066C241.984 167.336 242.414 167.716 242.734 168.206C243.064 168.696 243.229 169.271 243.229 169.931C243.229 170.641 243.049 171.261 242.689 171.791C242.339 172.311 241.864 172.716 241.264 173.006C240.674 173.286 240.004 173.426 239.254 173.426ZM239.119 171.611C239.459 171.611 239.759 171.551 240.019 171.431C240.289 171.301 240.499 171.116 240.649 170.876C240.799 170.636 240.874 170.361 240.874 170.051C240.874 169.571 240.709 169.191 240.379 168.911C240.059 168.621 239.629 168.476 239.089 168.476C238.729 168.476 238.414 168.546 238.144 168.686C237.874 168.816 237.659 169.001 237.499 169.241C237.349 169.471 237.274 169.741 237.274 170.051C237.274 170.351 237.349 170.621 237.499 170.861C237.649 171.091 237.859 171.276 238.129 171.416C238.399 171.546 238.729 171.611 239.119 171.611Z" fill="white"/>
<path opacity="0.88" d="M228.595 200.342V198.767L232.645 194.942C232.965 194.652 233.2 194.392 233.35 194.162C233.5 193.932 233.6 193.722 233.65 193.532C233.71 193.342 233.74 193.167 233.74 193.007C233.74 192.587 233.595 192.267 233.305 192.047C233.025 191.817 232.61 191.702 232.06 191.702C231.62 191.702 231.21 191.787 230.83 191.957C230.46 192.127 230.145 192.392 229.885 192.752L228.115 191.612C228.515 191.012 229.075 190.537 229.795 190.187C230.515 189.837 231.345 189.662 232.285 189.662C233.065 189.662 233.745 189.792 234.325 190.052C234.915 190.302 235.37 190.657 235.69 191.117C236.02 191.577 236.185 192.127 236.185 192.767C236.185 193.107 236.14 193.447 236.05 193.787C235.97 194.117 235.8 194.467 235.54 194.837C235.29 195.207 234.92 195.622 234.43 196.082L231.07 199.247L230.605 198.362H236.53V200.342H228.595ZM240.938 200.522C240.208 200.522 239.483 200.427 238.763 200.237C238.043 200.037 237.433 199.757 236.933 199.397L237.878 197.537C238.278 197.827 238.743 198.057 239.273 198.227C239.803 198.397 240.338 198.482 240.878 198.482C241.488 198.482 241.968 198.362 242.318 198.122C242.668 197.882 242.843 197.552 242.843 197.132C242.843 196.732 242.688 196.417 242.378 196.187C242.068 195.957 241.568 195.842 240.878 195.842H239.768V194.237L242.693 190.922L242.963 191.792H237.458V189.842H244.808V191.417L241.898 194.732L240.668 194.027H241.373C242.663 194.027 243.638 194.317 244.298 194.897C244.958 195.477 245.288 196.222 245.288 197.132C245.288 197.722 245.133 198.277 244.823 198.797C244.513 199.307 244.038 199.722 243.398 200.042C242.758 200.362 241.938 200.522 240.938 200.522Z" fill="white"/>
<path opacity="0.88" d="M232.09 228.796C231.36 228.796 230.635 228.701 229.915 228.511C229.195 228.311 228.585 228.031 228.085 227.671L229.03 225.811C229.43 226.101 229.895 226.331 230.425 226.501C230.955 226.671 231.49 226.756 232.03 226.756C232.64 226.756 233.12 226.636 233.47 226.396C233.82 226.156 233.995 225.826 233.995 225.406C233.995 225.006 233.84 224.691 233.53 224.461C233.22 224.231 232.72 224.116 232.03 224.116H230.92V222.511L233.845 219.196L234.115 220.066H228.61V218.116H235.96V219.691L233.05 223.006L231.82 222.301H232.525C233.815 222.301 234.79 222.591 235.45 223.171C236.11 223.751 236.44 224.496 236.44 225.406C236.44 225.996 236.285 226.551 235.975 227.071C235.665 227.581 235.19 227.996 234.55 228.316C233.91 228.636 233.09 228.796 232.09 228.796ZM242.062 228.796C241.202 228.796 240.432 228.586 239.752 228.166C239.072 227.736 238.537 227.116 238.147 226.306C237.757 225.496 237.562 224.516 237.562 223.366C237.562 222.216 237.757 221.236 238.147 220.426C238.537 219.616 239.072 219.001 239.752 218.581C240.432 218.151 241.202 217.936 242.062 217.936C242.932 217.936 243.702 218.151 244.372 218.581C245.052 219.001 245.587 219.616 245.977 220.426C246.367 221.236 246.562 222.216 246.562 223.366C246.562 224.516 246.367 225.496 245.977 226.306C245.587 227.116 245.052 227.736 244.372 228.166C243.702 228.586 242.932 228.796 242.062 228.796ZM242.062 226.741C242.472 226.741 242.827 226.626 243.127 226.396C243.437 226.166 243.677 225.801 243.847 225.301C244.027 224.801 244.117 224.156 244.117 223.366C244.117 222.576 244.027 221.931 243.847 221.431C243.677 220.931 243.437 220.566 243.127 220.336C242.827 220.106 242.472 219.991 242.062 219.991C241.662 219.991 241.307 220.106 240.997 220.336C240.697 220.566 240.457 220.931 240.277 221.431C240.107 221.931 240.022 222.576 240.022 223.366C240.022 224.156 240.107 224.801 240.277 225.301C240.457 225.801 240.697 226.166 240.997 226.396C241.307 226.626 241.662 226.741 242.062 226.741Z" fill="white"/>
<path opacity="0.88" d="M290.69 82.6476H295.73V84.5976H290.69V82.6476ZM290.87 88.4226H288.44V77.9226H296.375V79.8726H290.87V88.4226Z" fill="white"/>
<path opacity="0.88" d="M291.185 116.877C290.455 116.877 289.73 116.782 289.01 116.592C288.29 116.392 287.68 116.112 287.18 115.752L288.125 113.892C288.525 114.182 288.99 114.412 289.52 114.582C290.05 114.752 290.585 114.837 291.125 114.837C291.735 114.837 292.215 114.717 292.565 114.477C292.915 114.237 293.09 113.907 293.09 113.487C293.09 113.087 292.935 112.772 292.625 112.542C292.315 112.312 291.815 112.197 291.125 112.197H290.015V110.592L292.94 107.277L293.21 108.147H287.705V106.197H295.055V107.772L292.145 111.087L290.915 110.382H291.62C292.91 110.382 293.885 110.672 294.545 111.252C295.205 111.832 295.535 112.577 295.535 113.487C295.535 114.077 295.38 114.632 295.07 115.152C294.76 115.662 294.285 116.077 293.645 116.397C293.005 116.717 292.185 116.877 291.185 116.877Z" fill="white"/>
<path opacity="0.88" d="M289.4 144.971V135.371L290.45 136.421H287.3V134.471H291.83V144.971H289.4ZM298.154 145.151C297.294 145.151 296.524 144.941 295.844 144.521C295.164 144.091 294.629 143.471 294.239 142.661C293.849 141.851 293.654 140.871 293.654 139.721C293.654 138.571 293.849 137.591 294.239 136.781C294.629 135.971 295.164 135.356 295.844 134.936C296.524 134.506 297.294 134.291 298.154 134.291C299.024 134.291 299.794 134.506 300.464 134.936C301.144 135.356 301.679 135.971 302.069 136.781C302.459 137.591 302.654 138.571 302.654 139.721C302.654 140.871 302.459 141.851 302.069 142.661C301.679 143.471 301.144 144.091 300.464 144.521C299.794 144.941 299.024 145.151 298.154 145.151ZM298.154 143.096C298.564 143.096 298.919 142.981 299.219 142.751C299.529 142.521 299.769 142.156 299.939 141.656C300.119 141.156 300.209 140.511 300.209 139.721C300.209 138.931 300.119 138.286 299.939 137.786C299.769 137.286 299.529 136.921 299.219 136.691C298.919 136.461 298.564 136.346 298.154 136.346C297.754 136.346 297.399 136.461 297.089 136.691C296.789 136.921 296.549 137.286 296.369 137.786C296.199 138.286 296.114 138.931 296.114 139.721C296.114 140.511 296.199 141.156 296.369 141.656C296.549 142.156 296.789 142.521 297.089 142.751C297.399 142.981 297.754 143.096 298.154 143.096Z" fill="white"/>
<path opacity="0.88" d="M289.4 173.246V163.646L290.45 164.696H287.3V162.746H291.83V173.246H289.4ZM295.334 173.246L299.564 163.676L300.194 164.726H294.539L295.619 163.586V166.436H293.459V162.746H301.874V164.321L297.974 173.246H295.334Z" fill="white"/>
<path opacity="0.88" d="M287.69 200.342V198.767L291.74 194.942C292.06 194.652 292.295 194.392 292.445 194.162C292.595 193.932 292.695 193.722 292.745 193.532C292.805 193.342 292.835 193.167 292.835 193.007C292.835 192.587 292.69 192.267 292.4 192.047C292.12 191.817 291.705 191.702 291.155 191.702C290.715 191.702 290.305 191.787 289.925 191.957C289.555 192.127 289.24 192.392 288.98 192.752L287.21 191.612C287.61 191.012 288.17 190.537 288.89 190.187C289.61 189.837 290.44 189.662 291.38 189.662C292.16 189.662 292.84 189.792 293.42 190.052C294.01 190.302 294.465 190.657 294.785 191.117C295.115 191.577 295.28 192.127 295.28 192.767C295.28 193.107 295.235 193.447 295.145 193.787C295.065 194.117 294.895 194.467 294.635 194.837C294.385 195.207 294.015 195.622 293.525 196.082L290.165 199.247L289.7 198.362H295.625V200.342H287.69ZM296.347 198.137V196.502L301.297 189.842H303.847L299.002 196.502L297.817 196.157H306.082V198.137H296.347ZM302.002 200.342V198.137L302.077 196.157V194.192H304.372V200.342H302.002Z" fill="white"/>
<path opacity="0.88" d="M353.023 88.6026C352.183 88.6026 351.378 88.4926 350.608 88.2726C349.838 88.0426 349.218 87.7476 348.748 87.3876L349.573 85.5576C350.023 85.8776 350.553 86.1426 351.163 86.3526C351.783 86.5526 352.408 86.6526 353.038 86.6526C353.518 86.6526 353.903 86.6076 354.193 86.5176C354.493 86.4176 354.713 86.2826 354.853 86.1126C354.993 85.9426 355.063 85.7476 355.063 85.5276C355.063 85.2476 354.953 85.0276 354.733 84.8676C354.513 84.6976 354.223 84.5626 353.863 84.4626C353.503 84.3526 353.103 84.2526 352.663 84.1626C352.233 84.0626 351.798 83.9426 351.358 83.8026C350.928 83.6626 350.533 83.4826 350.173 83.2626C349.813 83.0426 349.518 82.7526 349.288 82.3926C349.068 82.0326 348.958 81.5726 348.958 81.0126C348.958 80.4126 349.118 79.8676 349.438 79.3776C349.768 78.8776 350.258 78.4826 350.908 78.1926C351.568 77.8926 352.393 77.7426 353.383 77.7426C354.043 77.7426 354.693 77.8226 355.333 77.9826C355.973 78.1326 356.538 78.3626 357.028 78.6726L356.278 80.5176C355.788 80.2376 355.298 80.0326 354.808 79.9026C354.318 79.7626 353.838 79.6926 353.368 79.6926C352.898 79.6926 352.513 79.7476 352.213 79.8576C351.913 79.9676 351.698 80.1126 351.568 80.2926C351.438 80.4626 351.373 80.6626 351.373 80.8926C351.373 81.1626 351.483 81.3826 351.703 81.5526C351.923 81.7126 352.213 81.8426 352.573 81.9426C352.933 82.0426 353.328 82.1426 353.758 82.2426C354.198 82.3426 354.633 82.4576 355.063 82.5876C355.503 82.7176 355.903 82.8926 356.263 83.1126C356.623 83.3326 356.913 83.6226 357.133 83.9826C357.363 84.3426 357.478 84.7976 357.478 85.3476C357.478 85.9376 357.313 86.4776 356.983 86.9676C356.653 87.4576 356.158 87.8526 355.498 88.1526C354.848 88.4526 354.023 88.6026 353.023 88.6026Z" fill="white"/>
<path opacity="0.88" d="M348.793 114.492V112.857L353.743 106.197H356.293L351.448 112.857L350.263 112.512H358.528V114.492H348.793ZM354.448 116.697V114.492L354.523 112.512V110.547H356.818V116.697H354.448Z" fill="white"/>
<path opacity="0.88" d="M350.533 144.971V135.371L351.583 136.421H348.433V134.471H352.963V144.971H350.533ZM356.408 144.971V135.371L357.458 136.421H354.308V134.471H358.838V144.971H356.408Z" fill="white"/>
<path opacity="0.88" d="M350.533 173.246V163.646L351.583 164.696H348.433V162.746H352.963V173.246H350.533ZM359.138 173.426C358.258 173.426 357.488 173.296 356.828 173.036C356.168 172.766 355.653 172.391 355.283 171.911C354.913 171.421 354.728 170.851 354.728 170.201C354.728 169.551 354.908 169.001 355.268 168.551C355.638 168.091 356.153 167.746 356.813 167.516C357.473 167.276 358.248 167.156 359.138 167.156C360.038 167.156 360.818 167.276 361.478 167.516C362.148 167.746 362.663 168.091 363.023 168.551C363.393 169.001 363.578 169.551 363.578 170.201C363.578 170.851 363.393 171.421 363.023 171.911C362.653 172.391 362.133 172.766 361.463 173.036C360.803 173.296 360.028 173.426 359.138 173.426ZM359.138 171.641C359.748 171.641 360.228 171.506 360.578 171.236C360.938 170.966 361.118 170.596 361.118 170.126C361.118 169.656 360.938 169.291 360.578 169.031C360.228 168.761 359.748 168.626 359.138 168.626C358.538 168.626 358.063 168.761 357.713 169.031C357.363 169.291 357.188 169.656 357.188 170.126C357.188 170.596 357.363 170.966 357.713 171.236C358.063 171.506 358.538 171.641 359.138 171.641ZM359.138 168.386C358.328 168.386 357.618 168.276 357.008 168.056C356.408 167.836 355.938 167.516 355.598 167.096C355.268 166.666 355.103 166.156 355.103 165.566C355.103 164.946 355.273 164.416 355.613 163.976C355.953 163.526 356.428 163.181 357.038 162.941C357.648 162.691 358.348 162.566 359.138 162.566C359.948 162.566 360.653 162.691 361.253 162.941C361.863 163.181 362.338 163.526 362.678 163.976C363.028 164.416 363.203 164.946 363.203 165.566C363.203 166.156 363.033 166.666 362.693 167.096C362.363 167.516 361.893 167.836 361.283 168.056C360.673 168.276 359.958 168.386 359.138 168.386ZM359.138 166.961C359.648 166.961 360.048 166.846 360.338 166.616C360.638 166.386 360.788 166.071 360.788 165.671C360.788 165.251 360.633 164.926 360.323 164.696C360.023 164.466 359.628 164.351 359.138 164.351C358.658 164.351 358.268 164.466 357.968 164.696C357.668 164.926 357.518 165.251 357.518 165.671C357.518 166.071 357.663 166.386 357.953 166.616C358.243 166.846 358.638 166.961 359.138 166.961Z" fill="white"/>
<path opacity="0.88" d="M348.823 200.342V198.767L352.873 194.942C353.193 194.652 353.428 194.392 353.578 194.162C353.728 193.932 353.828 193.722 353.878 193.532C353.938 193.342 353.968 193.167 353.968 193.007C353.968 192.587 353.823 192.267 353.533 192.047C353.253 191.817 352.838 191.702 352.288 191.702C351.848 191.702 351.438 191.787 351.058 191.957C350.688 192.127 350.373 192.392 350.113 192.752L348.343 191.612C348.743 191.012 349.303 190.537 350.023 190.187C350.743 189.837 351.573 189.662 352.513 189.662C353.293 189.662 353.973 189.792 354.553 190.052C355.143 190.302 355.598 190.657 355.918 191.117C356.248 191.577 356.413 192.127 356.413 192.767C356.413 193.107 356.368 193.447 356.278 193.787C356.198 194.117 356.028 194.467 355.768 194.837C355.518 195.207 355.148 195.622 354.658 196.082L351.298 199.247L350.833 198.362H356.758V200.342H348.823ZM361.331 200.522C360.601 200.522 359.876 200.427 359.156 200.237C358.446 200.037 357.836 199.757 357.326 199.397L358.286 197.537C358.686 197.827 359.146 198.057 359.666 198.227C360.196 198.397 360.731 198.482 361.271 198.482C361.881 198.482 362.361 198.362 362.711 198.122C363.061 197.882 363.236 197.547 363.236 197.117C363.236 196.847 363.166 196.607 363.026 196.397C362.886 196.187 362.636 196.027 362.276 195.917C361.926 195.807 361.431 195.752 360.791 195.752H358.106L358.646 189.842H365.051V191.792H359.516L360.776 190.682L360.401 194.897L359.141 193.787H361.361C362.401 193.787 363.236 193.932 363.866 194.222C364.506 194.502 364.971 194.887 365.261 195.377C365.551 195.867 365.696 196.422 365.696 197.042C365.696 197.662 365.541 198.237 365.231 198.767C364.921 199.287 364.441 199.712 363.791 200.042C363.151 200.362 362.331 200.522 361.331 200.522Z" fill="white"/>
<path opacity="0.88" d="M412.119 88.6026C411.279 88.6026 410.474 88.4926 409.704 88.2726C408.934 88.0426 408.314 87.7476 407.844 87.3876L408.669 85.5576C409.119 85.8776 409.649 86.1426 410.259 86.3526C410.879 86.5526 411.504 86.6526 412.134 86.6526C412.614 86.6526 412.999 86.6076 413.289 86.5176C413.589 86.4176 413.809 86.2826 413.949 86.1126C414.089 85.9426 414.159 85.7476 414.159 85.5276C414.159 85.2476 414.049 85.0276 413.829 84.8676C413.609 84.6976 413.319 84.5626 412.959 84.4626C412.599 84.3526 412.199 84.2526 411.759 84.1626C411.329 84.0626 410.894 83.9426 410.454 83.8026C410.024 83.6626 409.629 83.4826 409.269 83.2626C408.909 83.0426 408.614 82.7526 408.384 82.3926C408.164 82.0326 408.054 81.5726 408.054 81.0126C408.054 80.4126 408.214 79.8676 408.534 79.3776C408.864 78.8776 409.354 78.4826 410.004 78.1926C410.664 77.8926 411.489 77.7426 412.479 77.7426C413.139 77.7426 413.789 77.8226 414.429 77.9826C415.069 78.1326 415.634 78.3626 416.124 78.6726L415.374 80.5176C414.884 80.2376 414.394 80.0326 413.904 79.9026C413.414 79.7626 412.934 79.6926 412.464 79.6926C411.994 79.6926 411.609 79.7476 411.309 79.8576C411.009 79.9676 410.794 80.1126 410.664 80.2926C410.534 80.4626 410.469 80.6626 410.469 80.8926C410.469 81.1626 410.579 81.3826 410.799 81.5526C411.019 81.7126 411.309 81.8426 411.669 81.9426C412.029 82.0426 412.424 82.1426 412.854 82.2426C413.294 82.3426 413.729 82.4576 414.159 82.5876C414.599 82.7176 414.999 82.8926 415.359 83.1126C415.719 83.3326 416.009 83.6226 416.229 83.9826C416.459 84.3426 416.574 84.7976 416.574 85.3476C416.574 85.9376 416.409 86.4776 416.079 86.9676C415.749 87.4576 415.254 87.8526 414.594 88.1526C413.944 88.4526 413.119 88.6026 412.119 88.6026Z" fill="white"/>
<path opacity="0.88" d="M411.579 116.877C410.849 116.877 410.124 116.782 409.404 116.592C408.694 116.392 408.084 116.112 407.574 115.752L408.534 113.892C408.934 114.182 409.394 114.412 409.914 114.582C410.444 114.752 410.979 114.837 411.519 114.837C412.129 114.837 412.609 114.717 412.959 114.477C413.309 114.237 413.484 113.902 413.484 113.472C413.484 113.202 413.414 112.962 413.274 112.752C413.134 112.542 412.884 112.382 412.524 112.272C412.174 112.162 411.679 112.107 411.039 112.107H408.354L408.894 106.197H415.299V108.147H409.764L411.024 107.037L410.649 111.252L409.389 110.142H411.609C412.649 110.142 413.484 110.287 414.114 110.577C414.754 110.857 415.219 111.242 415.509 111.732C415.799 112.222 415.944 112.777 415.944 113.397C415.944 114.017 415.789 114.592 415.479 115.122C415.169 115.642 414.689 116.067 414.039 116.397C413.399 116.717 412.579 116.877 411.579 116.877Z" fill="white"/>
<path opacity="0.88" d="M409.629 144.971V135.371L410.679 136.421H407.529V134.471H412.059V144.971H409.629ZM413.793 144.971V143.396L417.843 139.571C418.163 139.281 418.398 139.021 418.548 138.791C418.698 138.561 418.798 138.351 418.848 138.161C418.908 137.971 418.938 137.796 418.938 137.636C418.938 137.216 418.793 136.896 418.503 136.676C418.223 136.446 417.808 136.331 417.258 136.331C416.818 136.331 416.408 136.416 416.028 136.586C415.658 136.756 415.343 137.021 415.083 137.381L413.313 136.241C413.713 135.641 414.273 135.166 414.993 134.816C415.713 134.466 416.543 134.291 417.483 134.291C418.263 134.291 418.943 134.421 419.523 134.681C420.113 134.931 420.568 135.286 420.888 135.746C421.218 136.206 421.383 136.756 421.383 137.396C421.383 137.736 421.338 138.076 421.248 138.416C421.168 138.746 420.998 139.096 420.738 139.466C420.488 139.836 420.118 140.251 419.628 140.711L416.268 143.876L415.803 142.991H421.728V144.971H413.793Z" fill="white"/>
<path opacity="0.88" d="M409.629 173.246V163.646L410.679 164.696H407.529V162.746H412.059V173.246H409.629ZM417.573 162.566C418.543 162.566 419.378 162.766 420.078 163.166C420.778 163.566 421.318 164.151 421.698 164.921C422.078 165.681 422.268 166.631 422.268 167.771C422.268 168.981 422.038 170.006 421.578 170.846C421.128 171.686 420.503 172.326 419.703 172.766C418.903 173.206 417.973 173.426 416.913 173.426C416.363 173.426 415.833 173.366 415.323 173.246C414.813 173.126 414.373 172.946 414.003 172.706L414.903 170.921C415.193 171.121 415.503 171.261 415.833 171.341C416.163 171.411 416.508 171.446 416.868 171.446C417.768 171.446 418.483 171.171 419.013 170.621C419.553 170.071 419.823 169.256 419.823 168.176C419.823 167.996 419.818 167.796 419.808 167.576C419.798 167.356 419.773 167.136 419.733 166.916L420.393 167.546C420.223 167.936 419.983 168.266 419.673 168.536C419.363 168.796 419.003 168.996 418.593 169.136C418.183 169.266 417.723 169.331 417.213 169.331C416.543 169.331 415.933 169.196 415.383 168.926C414.843 168.656 414.408 168.276 414.078 167.786C413.758 167.296 413.598 166.721 413.598 166.061C413.598 165.341 413.773 164.721 414.123 164.201C414.483 163.681 414.963 163.281 415.563 163.001C416.173 162.711 416.843 162.566 417.573 162.566ZM417.723 164.381C417.373 164.381 417.068 164.446 416.808 164.576C416.548 164.696 416.343 164.876 416.193 165.116C416.043 165.346 415.968 165.621 415.968 165.941C415.968 166.421 416.128 166.806 416.448 167.096C416.778 167.376 417.213 167.516 417.753 167.516C418.103 167.516 418.413 167.451 418.683 167.321C418.963 167.181 419.178 166.991 419.328 166.751C419.478 166.511 419.553 166.241 419.553 165.941C419.553 165.641 419.478 165.376 419.328 165.146C419.188 164.906 418.983 164.721 418.713 164.591C418.443 164.451 418.113 164.381 417.723 164.381Z" fill="white"/>
<path opacity="0.88" d="M407.919 200.342V198.767L411.969 194.942C412.289 194.652 412.524 194.392 412.674 194.162C412.824 193.932 412.924 193.722 412.974 193.532C413.034 193.342 413.064 193.167 413.064 193.007C413.064 192.587 412.919 192.267 412.629 192.047C412.349 191.817 411.934 191.702 411.384 191.702C410.944 191.702 410.534 191.787 410.154 191.957C409.784 192.127 409.469 192.392 409.209 192.752L407.439 191.612C407.839 191.012 408.399 190.537 409.119 190.187C409.839 189.837 410.669 189.662 411.609 189.662C412.389 189.662 413.069 189.792 413.649 190.052C414.239 190.302 414.694 190.657 415.014 191.117C415.344 191.577 415.509 192.127 415.509 192.767C415.509 193.107 415.464 193.447 415.374 193.787C415.294 194.117 415.124 194.467 414.864 194.837C414.614 195.207 414.244 195.622 413.754 196.082L410.394 199.247L409.929 198.362H415.854V200.342H407.919ZM421.552 200.522C420.592 200.522 419.757 200.322 419.047 199.922C418.347 199.522 417.807 198.937 417.427 198.167C417.047 197.397 416.857 196.447 416.857 195.317C416.857 194.107 417.082 193.082 417.532 192.242C417.992 191.402 418.622 190.762 419.422 190.322C420.232 189.882 421.162 189.662 422.212 189.662C422.772 189.662 423.307 189.722 423.817 189.842C424.327 189.962 424.767 190.142 425.137 190.382L424.237 192.167C423.947 191.967 423.637 191.832 423.307 191.762C422.977 191.682 422.632 191.642 422.272 191.642C421.362 191.642 420.642 191.917 420.112 192.467C419.582 193.017 419.317 193.832 419.317 194.912C419.317 195.092 419.317 195.292 419.317 195.512C419.327 195.732 419.357 195.952 419.407 196.172L418.732 195.542C418.922 195.152 419.167 194.827 419.467 194.567C419.767 194.297 420.122 194.097 420.532 193.967C420.952 193.827 421.412 193.757 421.912 193.757C422.592 193.757 423.202 193.892 423.742 194.162C424.282 194.432 424.712 194.812 425.032 195.302C425.362 195.792 425.527 196.367 425.527 197.027C425.527 197.737 425.347 198.357 424.987 198.887C424.637 199.407 424.162 199.812 423.562 200.102C422.972 200.382 422.302 200.522 421.552 200.522ZM421.417 198.707C421.757 198.707 422.057 198.647 422.317 198.527C422.587 198.397 422.797 198.212 422.947 197.972C423.097 197.732 423.172 197.457 423.172 197.147C423.172 196.667 423.007 196.287 422.677 196.007C422.357 195.717 421.927 195.572 421.387 195.572C421.027 195.572 420.712 195.642 420.442 195.782C420.172 195.912 419.957 196.097 419.797 196.337C419.647 196.567 419.572 196.837 419.572 197.147C419.572 197.447 419.647 197.717 419.797 197.957C419.947 198.187 420.157 198.372 420.427 198.512C420.697 198.642 421.027 198.707 421.417 198.707Z" fill="white"/>
<ellipse cx="1.01888" cy="0.589046" rx="1.01888" ry="0.589046" transform="matrix(-1 0 0 1 236.251 145.108)" fill="#D9D9D9"/>
<rect x="386" y="21.9272" width="40" height="36.6151" rx="5" fill="#443AD8"/>
<g clip-path="url(#clip0_0_1)">
<path d="M398.438 47.6196L411.563 34.6311M411.563 34.6311H401.719M411.563 34.6311V44.3724" stroke="white" stroke-width="1.5" stroke-linecap="round" stroke-linejoin="round"/>
</g>
<g filter="url(#filter1_f_0_1)">
<rect x="4" y="4" width="449" height="270" rx="30" fill="#121212" fill-opacity="0.75"/>
</g>
<path d="M107.359 153V130.6H117.055C119.06 130.6 120.788 130.931 122.239 131.592C123.69 132.232 124.81 133.16 125.599 134.376C126.388 135.592 126.783 137.043 126.783 138.728C126.783 140.392 126.388 141.832 125.599 143.048C124.81 144.264 123.69 145.203 122.239 145.864C120.788 146.504 119.06 146.824 117.055 146.824H110.239L112.543 144.488V153H107.359ZM112.543 145.064L110.239 142.6H116.767C118.367 142.6 119.562 142.259 120.351 141.576C121.14 140.893 121.535 139.944 121.535 138.728C121.535 137.491 121.14 136.531 120.351 135.848C119.562 135.165 118.367 134.824 116.767 134.824H110.239L112.543 132.36V145.064ZM130.101 153V135.784H134.869V140.648L134.197 139.24C134.709 138.024 135.53 137.107 136.661 136.488C137.792 135.848 139.168 135.528 140.789 135.528V140.136C140.576 140.115 140.384 140.104 140.213 140.104C140.042 140.083 139.861 140.072 139.669 140.072C138.304 140.072 137.194 140.467 136.341 141.256C135.509 142.024 135.093 143.229 135.093 144.872V153H130.101ZM151.824 153.256C149.989 153.256 148.357 152.872 146.928 152.104C145.52 151.336 144.4 150.291 143.568 148.968C142.757 147.624 142.352 146.099 142.352 144.392C142.352 142.664 142.757 141.139 143.568 139.816C144.4 138.472 145.52 137.427 146.928 136.68C148.357 135.912 149.989 135.528 151.824 135.528C153.637 135.528 155.259 135.912 156.688 136.68C158.117 137.427 159.237 138.461 160.048 139.784C160.859 141.107 161.264 142.643 161.264 144.392C161.264 146.099 160.859 147.624 160.048 148.968C159.237 150.291 158.117 151.336 156.688 152.104C155.259 152.872 153.637 153.256 151.824 153.256ZM151.824 149.16C152.656 149.16 153.403 148.968 154.064 148.584C154.725 148.2 155.248 147.656 155.632 146.952C156.016 146.227 156.208 145.373 156.208 144.392C156.208 143.389 156.016 142.536 155.632 141.832C155.248 141.128 154.725 140.584 154.064 140.2C153.403 139.816 152.656 139.624 151.824 139.624C150.992 139.624 150.245 139.816 149.584 140.2C148.923 140.584 148.389 141.128 147.984 141.832C147.6 142.536 147.408 143.389 147.408 144.392C147.408 145.373 147.6 146.227 147.984 146.952C148.389 147.656 148.923 148.2 149.584 148.584C150.245 148.968 150.992 149.16 151.824 149.16ZM161.894 153L169.606 142.888L169.51 145.64L162.118 135.784H167.718L172.39 142.216L170.278 142.28L175.11 135.784H180.422L172.998 145.544V142.856L180.678 153H175.014L170.118 146.152L172.198 146.44L167.334 153H161.894ZM183.101 153V135.784H188.093V153H183.101ZM185.597 133.384C184.68 133.384 183.933 133.117 183.357 132.584C182.781 132.051 182.493 131.389 182.493 130.6C182.493 129.811 182.781 129.149 183.357 128.616C183.933 128.083 184.68 127.816 185.597 127.816C186.514 127.816 187.261 128.072 187.837 128.584C188.413 129.075 188.701 129.715 188.701 130.504C188.701 131.336 188.413 132.029 187.837 132.584C187.282 133.117 186.536 133.384 185.597 133.384ZM214.774 135.528C216.139 135.528 217.345 135.805 218.39 136.36C219.457 136.893 220.289 137.725 220.886 138.856C221.505 139.965 221.814 141.395 221.814 143.144V153H216.822V143.912C216.822 142.525 216.534 141.501 215.958 140.84C215.382 140.179 214.571 139.848 213.526 139.848C212.801 139.848 212.15 140.019 211.574 140.36C210.998 140.68 210.55 141.171 210.23 141.832C209.91 142.493 209.75 143.336 209.75 144.36V153H204.758V143.912C204.758 142.525 204.47 141.501 203.894 140.84C203.339 140.179 202.539 139.848 201.494 139.848C200.769 139.848 200.118 140.019 199.542 140.36C198.966 140.68 198.518 141.171 198.198 141.832C197.878 142.493 197.718 143.336 197.718 144.36V153H192.726V135.784H197.494V140.488L196.598 139.112C197.195 137.939 198.038 137.053 199.126 136.456C200.235 135.837 201.494 135.528 202.902 135.528C204.481 135.528 205.857 135.933 207.03 136.744C208.225 137.533 209.014 138.749 209.398 140.392L207.638 139.912C208.214 138.568 209.131 137.501 210.39 136.712C211.67 135.923 213.131 135.528 214.774 135.528ZM236.848 153V149.64L236.528 148.904V142.888C236.528 141.821 236.198 140.989 235.536 140.392C234.896 139.795 233.904 139.496 232.56 139.496C231.643 139.496 230.736 139.645 229.84 139.944C228.966 140.221 228.219 140.605 227.6 141.096L225.808 137.608C226.747 136.947 227.878 136.435 229.2 136.072C230.523 135.709 231.867 135.528 233.232 135.528C235.856 135.528 237.894 136.147 239.344 137.384C240.795 138.621 241.52 140.552 241.52 143.176V153H236.848ZM231.6 153.256C230.256 153.256 229.104 153.032 228.144 152.584C227.184 152.115 226.448 151.485 225.936 150.696C225.424 149.907 225.168 149.021 225.168 148.04C225.168 147.016 225.414 146.12 225.904 145.352C226.416 144.584 227.216 143.987 228.304 143.56C229.392 143.112 230.811 142.888 232.56 142.888H237.136V145.8H233.104C231.931 145.8 231.12 145.992 230.672 146.376C230.246 146.76 230.032 147.24 230.032 147.816C230.032 148.456 230.278 148.968 230.768 149.352C231.28 149.715 231.974 149.896 232.848 149.896C233.68 149.896 234.427 149.704 235.088 149.32C235.75 148.915 236.23 148.328 236.528 147.56L237.296 149.864C236.934 150.973 236.272 151.816 235.312 152.392C234.352 152.968 233.115 153.256 231.6 153.256ZM268.086 135.528C269.452 135.528 270.657 135.805 271.702 136.36C272.769 136.893 273.601 137.725 274.198 138.856C274.817 139.965 275.126 141.395 275.126 143.144V153H270.134V143.912C270.134 142.525 269.846 141.501 269.27 140.84C268.694 140.179 267.884 139.848 266.838 139.848C266.113 139.848 265.462 140.019 264.886 140.36C264.31 140.68 263.862 141.171 263.542 141.832C263.222 142.493 263.062 143.336 263.062 144.36V153H258.07V143.912C258.07 142.525 257.782 141.501 257.206 140.84C256.652 140.179 255.852 139.848 254.806 139.848C254.081 139.848 253.43 140.019 252.854 140.36C252.278 140.68 251.83 141.171 251.51 141.832C251.19 142.493 251.03 143.336 251.03 144.36V153H246.038V135.784H250.806V140.488L249.91 139.112C250.508 137.939 251.35 137.053 252.438 136.456C253.548 135.837 254.806 135.528 256.214 135.528C257.793 135.528 259.169 135.933 260.342 136.744C261.537 137.533 262.326 138.749 262.71 140.392L260.95 139.912C261.526 138.568 262.444 137.501 263.702 136.712C264.982 135.923 266.444 135.528 268.086 135.528ZM288.27 153.256C286.307 153.256 284.579 152.872 283.086 152.104C281.614 151.336 280.473 150.291 279.662 148.968C278.851 147.624 278.446 146.099 278.446 144.392C278.446 142.664 278.841 141.139 279.63 139.816C280.441 138.472 281.539 137.427 282.926 136.68C284.313 135.912 285.881 135.528 287.63 135.528C289.315 135.528 290.83 135.891 292.174 136.616C293.539 137.32 294.617 138.344 295.406 139.688C296.195 141.011 296.59 142.6 296.59 144.456C296.59 144.648 296.579 144.872 296.558 145.128C296.537 145.363 296.515 145.587 296.494 145.8H282.51V142.888H293.87L291.95 143.752C291.95 142.856 291.769 142.077 291.406 141.416C291.043 140.755 290.542 140.243 289.902 139.88C289.262 139.496 288.515 139.304 287.662 139.304C286.809 139.304 286.051 139.496 285.39 139.88C284.75 140.243 284.249 140.765 283.886 141.448C283.523 142.109 283.342 142.899 283.342 143.816V144.584C283.342 145.523 283.545 146.355 283.95 147.08C284.377 147.784 284.963 148.328 285.71 148.712C286.478 149.075 287.374 149.256 288.398 149.256C289.315 149.256 290.115 149.117 290.798 148.84C291.502 148.563 292.142 148.147 292.718 147.592L295.374 150.472C294.585 151.368 293.593 152.061 292.398 152.552C291.203 153.021 289.827 153.256 288.27 153.256ZM310.377 135.528C311.743 135.528 312.959 135.805 314.025 136.36C315.113 136.893 315.967 137.725 316.585 138.856C317.204 139.965 317.513 141.395 317.513 143.144V153H312.521V143.912C312.521 142.525 312.212 141.501 311.593 140.84C310.996 140.179 310.143 139.848 309.033 139.848C308.244 139.848 307.529 140.019 306.889 140.36C306.271 140.68 305.78 141.181 305.417 141.864C305.076 142.547 304.905 143.421 304.905 144.488V153H299.913V135.784H304.681V140.552L303.785 139.112C304.404 137.96 305.289 137.075 306.441 136.456C307.593 135.837 308.905 135.528 310.377 135.528ZM329.078 153.256C327.052 153.256 325.473 152.744 324.342 151.72C323.212 150.675 322.646 149.128 322.646 147.08V131.976H327.638V147.016C327.638 147.741 327.83 148.307 328.214 148.712C328.598 149.096 329.121 149.288 329.782 149.288C330.572 149.288 331.244 149.075 331.798 148.648L333.142 152.168C332.63 152.531 332.012 152.808 331.286 153C330.582 153.171 329.846 153.256 329.078 153.256ZM319.99 140.008V136.168H331.926V140.008H319.99ZM343.957 153.256C341.995 153.256 340.267 152.872 338.773 152.104C337.301 151.336 336.16 150.291 335.349 148.968C334.539 147.624 334.133 146.099 334.133 144.392C334.133 142.664 334.528 141.139 335.317 139.816C336.128 138.472 337.227 137.427 338.613 136.68C340 135.912 341.568 135.528 343.317 135.528C345.003 135.528 346.517 135.891 347.861 136.616C349.227 137.32 350.304 138.344 351.093 139.688C351.883 141.011 352.277 142.6 352.277 144.456C352.277 144.648 352.267 144.872 352.245 145.128C352.224 145.363 352.203 145.587 352.181 145.8H338.197V142.888H349.557L347.637 143.752C347.637 142.856 347.456 142.077 347.093 141.416C346.731 140.755 346.229 140.243 345.589 139.88C344.949 139.496 344.203 139.304 343.349 139.304C342.496 139.304 341.739 139.496 341.077 139.88C340.437 140.243 339.936 140.765 339.573 141.448C339.211 142.109 339.029 142.899 339.029 143.816V144.584C339.029 145.523 339.232 146.355 339.637 147.08C340.064 147.784 340.651 148.328 341.397 148.712C342.165 149.075 343.061 149.256 344.085 149.256C345.003 149.256 345.803 149.117 346.485 148.84C347.189 148.563 347.829 148.147 348.405 147.592L351.061 150.472C350.272 151.368 349.28 152.061 348.085 152.552C346.891 153.021 345.515 153.256 343.957 153.256Z" fill="white"/>
<defs>
<filter id="filter0_d_0_1" x="0" y="4" width="457" height="278" filterUnits="userSpaceOnUse" color-interpolation-filters="sRGB">
<feFlood flood-opacity="0" result="BackgroundImageFix"/>
<feColorMatrix in="SourceAlpha" type="matrix" values="0 0 0 0 0 0 0 0 0 0 0 0 0 0 0 0 0 0 127 0" result="hardAlpha"/>
<feOffset dy="4"/>
<feGaussianBlur stdDeviation="2"/>
<feComposite in2="hardAlpha" operator="out"/>
<feColorMatrix type="matrix" values="0 0 0 0 0 0 0 0 0 0 0 0 0 0 0 0 0 0 0.25 0"/>
<feBlend mode="normal" in2="BackgroundImageFix" result="effect1_dropShadow_0_1"/>
<feBlend mode="normal" in="SourceGraphic" in2="effect1_dropShadow_0_1" result="shape"/>
</filter>
<filter id="filter1_f_0_1" x="0" y="0" width="457" height="278" filterUnits="userSpaceOnUse" color-interpolation-filters="sRGB">
<feFlood flood-opacity="0" result="BackgroundImageFix"/>
<feBlend mode="normal" in="SourceGraphic" in2="BackgroundImageFix" result="shape"/>
<feGaussianBlur stdDeviation="2" result="effect1_foregroundBlur_0_1"/>
</filter>
<clipPath id="clip0_0_1">
<rect width="21" height="20.7815" fill="white" transform="translate(398 32.8127)"/>
</clipPath>
</defs>
</svg>
