<svg width="623" height="270" viewBox="0 0 623 270" fill="none" xmlns="http://www.w3.org/2000/svg">
<g filter="url(#filter0_b_0_1)">
<rect width="623" height="270" rx="36" fill="#121212"/>
</g>
<path d="M56.1057 37.8875V30.8875H57.1057V37.8875H56.1057ZM61.8914 32.5375C62.3247 32.5375 62.7047 32.6208 63.0314 32.7875C63.3647 32.9541 63.6247 33.2075 63.8114 33.5475C63.998 33.8875 64.0914 34.3175 64.0914 34.8375V37.8875H63.1314V34.9475C63.1314 34.4341 63.0047 34.0475 62.7514 33.7875C62.5047 33.5275 62.1547 33.3975 61.7014 33.3975C61.3614 33.3975 61.0647 33.4641 60.8114 33.5975C60.558 33.7308 60.3614 33.9275 60.2214 34.1875C60.088 34.4475 60.0214 34.7708 60.0214 35.1575V37.8875H59.0614V32.5875H59.9814V34.0175L59.8314 33.6375C60.0047 33.2908 60.2714 33.0208 60.6314 32.8275C60.9914 32.6341 61.4114 32.5375 61.8914 32.5375ZM68.178 37.9475C67.638 37.9475 67.1547 37.8308 66.728 37.5975C66.308 37.3641 65.978 37.0441 65.738 36.6375C65.498 36.2308 65.378 35.7641 65.378 35.2375C65.378 34.7108 65.498 34.2441 65.738 33.8375C65.978 33.4308 66.308 33.1141 66.728 32.8875C67.1547 32.6541 67.638 32.5375 68.178 32.5375C68.658 32.5375 69.0847 32.6341 69.458 32.8275C69.838 33.0141 70.1313 33.2941 70.338 33.6675L69.608 34.1375C69.4347 33.8775 69.2213 33.6875 68.968 33.5675C68.7213 33.4408 68.4547 33.3775 68.168 33.3775C67.8213 33.3775 67.5113 33.4541 67.238 33.6075C66.9647 33.7608 66.748 33.9775 66.588 34.2575C66.428 34.5308 66.348 34.8575 66.348 35.2375C66.348 35.6175 66.428 35.9475 66.588 36.2275C66.748 36.5075 66.9647 36.7241 67.238 36.8775C67.5113 37.0308 67.8213 37.1075 68.168 37.1075C68.4547 37.1075 68.7213 37.0475 68.968 36.9275C69.2213 36.8008 69.4347 36.6075 69.608 36.3475L70.338 36.8075C70.1313 37.1741 69.838 37.4575 69.458 37.6575C69.0847 37.8508 68.658 37.9475 68.178 37.9475ZM73.7728 37.9475C73.2394 37.9475 72.7661 37.8308 72.3528 37.5975C71.9394 37.3641 71.6128 37.0441 71.3728 36.6375C71.1328 36.2241 71.0128 35.7575 71.0128 35.2375C71.0128 34.7108 71.1328 34.2441 71.3728 33.8375C71.6128 33.4308 71.9394 33.1141 72.3528 32.8875C72.7661 32.6541 73.2394 32.5375 73.7728 32.5375C74.2994 32.5375 74.7694 32.6541 75.1828 32.8875C75.6028 33.1141 75.9294 33.4308 76.1628 33.8375C76.4028 34.2375 76.5228 34.7041 76.5228 35.2375C76.5228 35.7641 76.4028 36.2308 76.1628 36.6375C75.9294 37.0441 75.6028 37.3641 75.1828 37.5975C74.7694 37.8308 74.2994 37.9475 73.7728 37.9475ZM73.7728 37.1075C74.1128 37.1075 74.4161 37.0308 74.6828 36.8775C74.9561 36.7241 75.1694 36.5075 75.3228 36.2275C75.4761 35.9408 75.5528 35.6108 75.5528 35.2375C75.5528 34.8575 75.4761 34.5308 75.3228 34.2575C75.1694 33.9775 74.9561 33.7608 74.6828 33.6075C74.4161 33.4541 74.1128 33.3775 73.7728 33.3775C73.4328 33.3775 73.1294 33.4541 72.8628 33.6075C72.5961 33.7608 72.3828 33.9775 72.2228 34.2575C72.0628 34.5308 71.9828 34.8575 71.9828 35.2375C71.9828 35.6108 72.0628 35.9408 72.2228 36.2275C72.3828 36.5075 72.5961 36.7241 72.8628 36.8775C73.1294 37.0308 73.4328 37.1075 73.7728 37.1075ZM84.4804 32.5375C84.9071 32.5375 85.2838 32.6208 85.6104 32.7875C85.9371 32.9541 86.1904 33.2075 86.3704 33.5475C86.5571 33.8875 86.6504 34.3175 86.6504 34.8375V37.8875H85.6904V34.9475C85.6904 34.4341 85.5704 34.0475 85.3304 33.7875C85.0904 33.5275 84.7538 33.3975 84.3204 33.3975C84.0004 33.3975 83.7204 33.4641 83.4804 33.5975C83.2404 33.7308 83.0538 33.9275 82.9204 34.1875C82.7938 34.4475 82.7304 34.7708 82.7304 35.1575V37.8875H81.7704V34.9475C81.7704 34.4341 81.6504 34.0475 81.4104 33.7875C81.1771 33.5275 80.8404 33.3975 80.4004 33.3975C80.0871 33.3975 79.8104 33.4641 79.5704 33.5975C79.3304 33.7308 79.1438 33.9275 79.0104 34.1875C78.8771 34.4475 78.8104 34.7708 78.8104 35.1575V37.8875H77.8504V32.5875H78.7704V33.9975L78.6204 33.6375C78.7871 33.2908 79.0438 33.0208 79.3904 32.8275C79.7371 32.6341 80.1404 32.5375 80.6004 32.5375C81.1071 32.5375 81.5438 32.6641 81.9104 32.9175C82.2771 33.1641 82.5171 33.5408 82.6304 34.0475L82.2404 33.8875C82.4004 33.4808 82.6804 33.1541 83.0804 32.9075C83.4804 32.6608 83.9471 32.5375 84.4804 32.5375ZM90.7768 37.9475C90.2102 37.9475 89.7102 37.8308 89.2768 37.5975C88.8502 37.3641 88.5168 37.0441 88.2768 36.6375C88.0435 36.2308 87.9268 35.7641 87.9268 35.2375C87.9268 34.7108 88.0402 34.2441 88.2668 33.8375C88.5002 33.4308 88.8168 33.1141 89.2168 32.8875C89.6235 32.6541 90.0802 32.5375 90.5868 32.5375C91.1002 32.5375 91.5535 32.6508 91.9468 32.8775C92.3402 33.1041 92.6468 33.4241 92.8668 33.8375C93.0935 34.2441 93.2068 34.7208 93.2068 35.2675C93.2068 35.3075 93.2035 35.3541 93.1968 35.4075C93.1968 35.4608 93.1935 35.5108 93.1868 35.5575H88.6768V34.8675H92.6868L92.2968 35.1075C92.3035 34.7675 92.2335 34.4641 92.0868 34.1975C91.9402 33.9308 91.7368 33.7241 91.4768 33.5775C91.2235 33.4241 90.9268 33.3475 90.5868 33.3475C90.2535 33.3475 89.9568 33.4241 89.6968 33.5775C89.4368 33.7241 89.2335 33.9341 89.0868 34.2075C88.9402 34.4741 88.8668 34.7808 88.8668 35.1275V35.2875C88.8668 35.6408 88.9468 35.9575 89.1068 36.2375C89.2735 36.5108 89.5035 36.7241 89.7968 36.8775C90.0902 37.0308 90.4268 37.1075 90.8068 37.1075C91.1202 37.1075 91.4035 37.0541 91.6568 36.9475C91.9168 36.8408 92.1435 36.6808 92.3368 36.4675L92.8668 37.0875C92.6268 37.3675 92.3268 37.5808 91.9668 37.7275C91.6135 37.8741 91.2168 37.9475 90.7768 37.9475ZM96.0599 37.9475C95.6199 37.9475 95.1999 37.8875 94.7999 37.7675C94.4065 37.6475 94.0965 37.5008 93.8699 37.3275L94.2699 36.5675C94.4965 36.7208 94.7765 36.8508 95.1099 36.9575C95.4432 37.0641 95.7832 37.1175 96.1299 37.1175C96.5765 37.1175 96.8965 37.0541 97.0899 36.9275C97.2899 36.8008 97.3899 36.6241 97.3899 36.3975C97.3899 36.2308 97.3299 36.1008 97.2099 36.0075C97.0899 35.9141 96.9299 35.8441 96.7299 35.7975C96.5365 35.7508 96.3199 35.7108 96.0799 35.6775C95.8399 35.6375 95.5999 35.5908 95.3599 35.5375C95.1199 35.4775 94.8999 35.3975 94.6999 35.2975C94.4999 35.1908 94.3399 35.0475 94.2199 34.8675C94.0999 34.6808 94.0399 34.4341 94.0399 34.1275C94.0399 33.8075 94.1299 33.5275 94.3099 33.2875C94.4899 33.0475 94.7432 32.8641 95.0699 32.7375C95.4032 32.6041 95.7965 32.5375 96.2499 32.5375C96.5965 32.5375 96.9465 32.5808 97.2999 32.6675C97.6599 32.7475 97.9532 32.8641 98.1799 33.0175L97.7699 33.7775C97.5299 33.6175 97.2799 33.5075 97.0199 33.4475C96.7599 33.3875 96.4999 33.3575 96.2399 33.3575C95.8199 33.3575 95.5065 33.4275 95.2999 33.5675C95.0932 33.7008 94.9899 33.8741 94.9899 34.0875C94.9899 34.2675 95.0499 34.4075 95.1699 34.5075C95.2965 34.6008 95.4565 34.6741 95.6499 34.7275C95.8499 34.7808 96.0699 34.8275 96.3099 34.8675C96.5499 34.9008 96.7899 34.9475 97.0299 35.0075C97.2699 35.0608 97.4865 35.1375 97.6799 35.2375C97.8799 35.3375 98.0399 35.4775 98.1599 35.6575C98.2865 35.8375 98.3499 36.0775 98.3499 36.3775C98.3499 36.6975 98.2565 36.9741 98.0699 37.2075C97.8832 37.4408 97.6199 37.6241 97.2799 37.7575C96.9399 37.8841 96.5332 37.9475 96.0599 37.9475Z" fill="white"/>
<ellipse cx="43.4651" cy="35.4931" rx="7.24419" ry="6.33803" fill="#20C997"/>
<path d="M159.883 33.9075H163.483V34.7575H159.883V33.9075ZM159.973 37.0175H164.053V37.8875H158.973V30.8875H163.913V31.7575H159.973V37.0175ZM164.645 37.8875L166.925 34.9275L166.915 35.4175L164.745 32.5875H165.815L167.475 34.7675H167.065L168.725 32.5875H169.775L167.575 35.4375L167.585 34.9275L169.885 37.8875H168.795L167.045 35.5675L167.435 35.6275L165.715 37.8875H164.645ZM173.743 37.9475C173.303 37.9475 172.899 37.8475 172.533 37.6475C172.173 37.4408 171.883 37.1375 171.663 36.7375C171.449 36.3375 171.343 35.8375 171.343 35.2375C171.343 34.6375 171.446 34.1375 171.653 33.7375C171.866 33.3375 172.153 33.0375 172.513 32.8375C172.879 32.6375 173.289 32.5375 173.743 32.5375C174.263 32.5375 174.723 32.6508 175.123 32.8775C175.523 33.1041 175.839 33.4208 176.073 33.8275C176.306 34.2275 176.423 34.6975 176.423 35.2375C176.423 35.7775 176.306 36.2508 176.073 36.6575C175.839 37.0641 175.523 37.3808 175.123 37.6075C174.723 37.8341 174.263 37.9475 173.743 37.9475ZM170.933 39.8275V32.5875H171.853V34.0175L171.793 35.2475L171.893 36.4775V39.8275H170.933ZM173.663 37.1075C174.003 37.1075 174.306 37.0308 174.573 36.8775C174.846 36.7241 175.059 36.5075 175.213 36.2275C175.373 35.9408 175.453 35.6108 175.453 35.2375C175.453 34.8575 175.373 34.5308 175.213 34.2575C175.059 33.9775 174.846 33.7608 174.573 33.6075C174.306 33.4541 174.003 33.3775 173.663 33.3775C173.329 33.3775 173.026 33.4541 172.753 33.6075C172.486 33.7608 172.273 33.9775 172.113 34.2575C171.959 34.5308 171.883 34.8575 171.883 35.2375C171.883 35.6108 171.959 35.9408 172.113 36.2275C172.273 36.5075 172.486 36.7241 172.753 36.8775C173.026 37.0308 173.329 37.1075 173.663 37.1075ZM180.109 37.9475C179.542 37.9475 179.042 37.8308 178.609 37.5975C178.182 37.3641 177.849 37.0441 177.609 36.6375C177.376 36.2308 177.259 35.7641 177.259 35.2375C177.259 34.7108 177.372 34.2441 177.599 33.8375C177.832 33.4308 178.149 33.1141 178.549 32.8875C178.956 32.6541 179.412 32.5375 179.919 32.5375C180.432 32.5375 180.886 32.6508 181.279 32.8775C181.672 33.1041 181.979 33.4241 182.199 33.8375C182.426 34.2441 182.539 34.7208 182.539 35.2675C182.539 35.3075 182.536 35.3541 182.529 35.4075C182.529 35.4608 182.526 35.5108 182.519 35.5575H178.009V34.8675H182.019L181.629 35.1075C181.636 34.7675 181.566 34.4641 181.419 34.1975C181.272 33.9308 181.069 33.7241 180.809 33.5775C180.556 33.4241 180.259 33.3475 179.919 33.3475C179.586 33.3475 179.289 33.4241 179.029 33.5775C178.769 33.7241 178.566 33.9341 178.419 34.2075C178.272 34.4741 178.199 34.7808 178.199 35.1275V35.2875C178.199 35.6408 178.279 35.9575 178.439 36.2375C178.606 36.5108 178.836 36.7241 179.129 36.8775C179.422 37.0308 179.759 37.1075 180.139 37.1075C180.452 37.1075 180.736 37.0541 180.989 36.9475C181.249 36.8408 181.476 36.6808 181.669 36.4675L182.199 37.0875C181.959 37.3675 181.659 37.5808 181.299 37.7275C180.946 37.8741 180.549 37.9475 180.109 37.9475ZM186.702 32.5375C187.135 32.5375 187.515 32.6208 187.842 32.7875C188.175 32.9541 188.435 33.2075 188.622 33.5475C188.809 33.8875 188.902 34.3175 188.902 34.8375V37.8875H187.942V34.9475C187.942 34.4341 187.815 34.0475 187.562 33.7875C187.315 33.5275 186.965 33.3975 186.512 33.3975C186.172 33.3975 185.875 33.4641 185.622 33.5975C185.369 33.7308 185.172 33.9275 185.032 34.1875C184.899 34.4475 184.832 34.7708 184.832 35.1575V37.8875H183.872V32.5875H184.792V34.0175L184.642 33.6375C184.815 33.2908 185.082 33.0208 185.442 32.8275C185.802 32.6341 186.222 32.5375 186.702 32.5375ZM192.199 37.9475C191.759 37.9475 191.339 37.8875 190.939 37.7675C190.545 37.6475 190.235 37.5008 190.009 37.3275L190.409 36.5675C190.635 36.7208 190.915 36.8508 191.249 36.9575C191.582 37.0641 191.922 37.1175 192.269 37.1175C192.715 37.1175 193.035 37.0541 193.229 36.9275C193.429 36.8008 193.529 36.6241 193.529 36.3975C193.529 36.2308 193.469 36.1008 193.349 36.0075C193.229 35.9141 193.069 35.8441 192.869 35.7975C192.675 35.7508 192.459 35.7108 192.219 35.6775C191.979 35.6375 191.739 35.5908 191.499 35.5375C191.259 35.4775 191.039 35.3975 190.839 35.2975C190.639 35.1908 190.479 35.0475 190.359 34.8675C190.239 34.6808 190.179 34.4341 190.179 34.1275C190.179 33.8075 190.269 33.5275 190.449 33.2875C190.629 33.0475 190.882 32.8641 191.209 32.7375C191.542 32.6041 191.935 32.5375 192.389 32.5375C192.735 32.5375 193.085 32.5808 193.439 32.6675C193.799 32.7475 194.092 32.8641 194.319 33.0175L193.909 33.7775C193.669 33.6175 193.419 33.5075 193.159 33.4475C192.899 33.3875 192.639 33.3575 192.379 33.3575C191.959 33.3575 191.645 33.4275 191.439 33.5675C191.232 33.7008 191.129 33.8741 191.129 34.0875C191.129 34.2675 191.189 34.4075 191.309 34.5075C191.435 34.6008 191.595 34.6741 191.789 34.7275C191.989 34.7808 192.209 34.8275 192.449 34.8675C192.689 34.9008 192.929 34.9475 193.169 35.0075C193.409 35.0608 193.625 35.1375 193.819 35.2375C194.019 35.3375 194.179 35.4775 194.299 35.6575C194.425 35.8375 194.489 36.0775 194.489 36.3775C194.489 36.6975 194.395 36.9741 194.209 37.2075C194.022 37.4408 193.759 37.6241 193.419 37.7575C193.079 37.8841 192.672 37.9475 192.199 37.9475ZM198.049 37.9475C197.482 37.9475 196.982 37.8308 196.549 37.5975C196.122 37.3641 195.789 37.0441 195.549 36.6375C195.315 36.2308 195.199 35.7641 195.199 35.2375C195.199 34.7108 195.312 34.2441 195.539 33.8375C195.772 33.4308 196.089 33.1141 196.489 32.8875C196.895 32.6541 197.352 32.5375 197.859 32.5375C198.372 32.5375 198.825 32.6508 199.219 32.8775C199.612 33.1041 199.919 33.4241 200.139 33.8375C200.365 34.2441 200.479 34.7208 200.479 35.2675C200.479 35.3075 200.475 35.3541 200.469 35.4075C200.469 35.4608 200.465 35.5108 200.459 35.5575H195.949V34.8675H199.959L199.569 35.1075C199.575 34.7675 199.505 34.4641 199.359 34.1975C199.212 33.9308 199.009 33.7241 198.749 33.5775C198.495 33.4241 198.199 33.3475 197.859 33.3475C197.525 33.3475 197.229 33.4241 196.969 33.5775C196.709 33.7241 196.505 33.9341 196.359 34.2075C196.212 34.4741 196.139 34.7808 196.139 35.1275V35.2875C196.139 35.6408 196.219 35.9575 196.379 36.2375C196.545 36.5108 196.775 36.7241 197.069 36.8775C197.362 37.0308 197.699 37.1075 198.079 37.1075C198.392 37.1075 198.675 37.0541 198.929 36.9475C199.189 36.8408 199.415 36.6808 199.609 36.4675L200.139 37.0875C199.899 37.3675 199.599 37.5808 199.239 37.7275C198.885 37.8741 198.489 37.9475 198.049 37.9475ZM203.332 37.9475C202.892 37.9475 202.472 37.8875 202.072 37.7675C201.678 37.6475 201.368 37.5008 201.142 37.3275L201.542 36.5675C201.768 36.7208 202.048 36.8508 202.382 36.9575C202.715 37.0641 203.055 37.1175 203.402 37.1175C203.848 37.1175 204.168 37.0541 204.362 36.9275C204.562 36.8008 204.662 36.6241 204.662 36.3975C204.662 36.2308 204.602 36.1008 204.482 36.0075C204.362 35.9141 204.202 35.8441 204.002 35.7975C203.808 35.7508 203.592 35.7108 203.352 35.6775C203.112 35.6375 202.872 35.5908 202.632 35.5375C202.392 35.4775 202.172 35.3975 201.972 35.2975C201.772 35.1908 201.612 35.0475 201.492 34.8675C201.372 34.6808 201.312 34.4341 201.312 34.1275C201.312 33.8075 201.402 33.5275 201.582 33.2875C201.762 33.0475 202.015 32.8641 202.342 32.7375C202.675 32.6041 203.068 32.5375 203.522 32.5375C203.868 32.5375 204.218 32.5808 204.572 32.6675C204.932 32.7475 205.225 32.8641 205.452 33.0175L205.042 33.7775C204.802 33.6175 204.552 33.5075 204.292 33.4475C204.032 33.3875 203.772 33.3575 203.512 33.3575C203.092 33.3575 202.778 33.4275 202.572 33.5675C202.365 33.7008 202.262 33.8741 202.262 34.0875C202.262 34.2675 202.322 34.4075 202.442 34.5075C202.568 34.6008 202.728 34.6741 202.922 34.7275C203.122 34.7808 203.342 34.8275 203.582 34.8675C203.822 34.9008 204.062 34.9475 204.302 35.0075C204.542 35.0608 204.758 35.1375 204.952 35.2375C205.152 35.3375 205.312 35.4775 205.432 35.6575C205.558 35.8375 205.622 36.0775 205.622 36.3775C205.622 36.6975 205.528 36.9741 205.342 37.2075C205.155 37.4408 204.892 37.6241 204.552 37.7575C204.212 37.8841 203.805 37.9475 203.332 37.9475Z" fill="white"/>
<ellipse cx="146.333" cy="35.4931" rx="7.24419" ry="6.33803" fill="#EB5757"/>
<path opacity="0.88" d="M48.483 243.36C48.0097 243.36 47.573 243.273 47.173 243.1C46.7797 242.92 46.4564 242.666 46.203 242.34L47.103 241.26C47.2964 241.513 47.4997 241.706 47.713 241.84C47.9264 241.966 48.1564 242.03 48.403 242.03C49.063 242.03 49.393 241.643 49.393 240.87V237.54H46.933V236.24H51.003V240.78C51.003 241.646 50.7897 242.293 50.363 242.72C49.9364 243.146 49.3097 243.36 48.483 243.36Z" fill="white"/>
<path opacity="0.88" d="M105.197 239.39H108.557V240.69H105.197V239.39ZM105.317 243.24H103.697V236.24H108.987V237.54H105.317V243.24Z" fill="white"/>
<path opacity="0.88" d="M167.446 243.24V236.24H168.786L171.766 241.18H171.056L173.986 236.24H175.316L175.336 243.24H173.816L173.806 238.57H174.086L171.746 242.5H171.016L168.626 238.57H168.966V243.24H167.446Z" fill="white"/>
<path opacity="0.88" d="M227.378 243.24L230.498 236.24H232.098L235.228 243.24H233.528L230.968 237.06H231.608L229.038 243.24H227.378ZM228.938 241.74L229.368 240.51H232.968L233.408 241.74H228.938Z" fill="white"/>
<path opacity="0.88" d="M293.495 243.24V236.24H294.835L297.815 241.18H297.105L300.035 236.24H301.365L301.385 243.24H299.865L299.855 238.57H300.135L297.795 242.5H297.065L294.675 238.57H295.015V243.24H293.495Z" fill="white"/>
<path opacity="0.88" d="M357.085 243.36C356.612 243.36 356.175 243.273 355.775 243.1C355.382 242.92 355.058 242.666 354.805 242.34L355.705 241.26C355.898 241.513 356.102 241.706 356.315 241.84C356.528 241.966 356.758 242.03 357.005 242.03C357.665 242.03 357.995 241.643 357.995 240.87V237.54H355.535V236.24H359.605V240.78C359.605 241.646 359.392 242.293 358.965 242.72C358.538 243.146 357.912 243.36 357.085 243.36Z" fill="white"/>
<path opacity="0.88" d="M419.385 243.36C418.912 243.36 418.475 243.273 418.075 243.1C417.682 242.92 417.358 242.666 417.105 242.34L418.005 241.26C418.198 241.513 418.402 241.706 418.615 241.84C418.828 241.966 419.058 242.03 419.305 242.03C419.965 242.03 420.295 241.643 420.295 240.87V237.54H417.835V236.24H421.905V240.78C421.905 241.646 421.692 242.293 421.265 242.72C420.838 243.146 420.212 243.36 419.385 243.36Z" fill="white"/>
<path opacity="0.88" d="M483.822 243.24L486.942 236.24H488.542L491.672 243.24H489.972L487.412 237.06H488.052L485.482 243.24H483.822ZM485.382 241.74L485.812 240.51H489.412L489.852 241.74H485.382Z" fill="white"/>
<path opacity="0.88" d="M549.342 243.36C548.782 243.36 548.245 243.286 547.732 243.14C547.218 242.986 546.805 242.79 546.492 242.55L547.042 241.33C547.342 241.543 547.695 241.72 548.102 241.86C548.515 241.993 548.932 242.06 549.352 242.06C549.672 242.06 549.928 242.03 550.122 241.97C550.322 241.903 550.468 241.813 550.562 241.7C550.655 241.586 550.702 241.456 550.702 241.31C550.702 241.123 550.628 240.976 550.482 240.87C550.335 240.756 550.142 240.666 549.902 240.6C549.662 240.526 549.395 240.46 549.102 240.4C548.815 240.333 548.525 240.253 548.232 240.16C547.945 240.066 547.682 239.946 547.442 239.8C547.202 239.653 547.005 239.46 546.852 239.22C546.705 238.98 546.632 238.673 546.632 238.3C546.632 237.9 546.738 237.536 546.952 237.21C547.172 236.876 547.498 236.613 547.932 236.42C548.372 236.22 548.922 236.12 549.582 236.12C550.022 236.12 550.455 236.173 550.882 236.28C551.308 236.38 551.685 236.533 552.012 236.74L551.512 237.97C551.185 237.783 550.858 237.646 550.532 237.56C550.205 237.466 549.885 237.42 549.572 237.42C549.258 237.42 549.002 237.456 548.802 237.53C548.602 237.603 548.458 237.7 548.372 237.82C548.285 237.933 548.242 238.066 548.242 238.22C548.242 238.4 548.315 238.546 548.462 238.66C548.608 238.766 548.802 238.853 549.042 238.92C549.282 238.986 549.545 239.053 549.832 239.12C550.125 239.186 550.415 239.263 550.702 239.35C550.995 239.436 551.262 239.553 551.502 239.7C551.742 239.846 551.935 240.04 552.082 240.28C552.235 240.52 552.312 240.823 552.312 241.19C552.312 241.583 552.202 241.943 551.982 242.27C551.762 242.596 551.432 242.86 550.992 243.06C550.558 243.26 550.008 243.36 549.342 243.36Z" fill="white"/>
<ellipse cx="170.963" cy="180" rx="4.34651" ry="3.80282" fill="#20C997"/>
<ellipse cx="357.863" cy="171.127" rx="4.34651" ry="3.80282" fill="#20C997"/>
<rect width="10" height="104" transform="matrix(1 0 0 -1 38 233)" fill="#EB5757"/>
<rect width="10" height="49" transform="matrix(1 0 0 -1 48 233)" fill="#20C997"/>
<rect width="10" height="158" transform="matrix(1 0 0 -1 96 233)" fill="#EB5757"/>
<rect width="10" height="35" transform="matrix(1 0 0 -1 106 233)" fill="#20C997"/>
<rect width="10" height="141" transform="matrix(1 0 0 -1 161 233)" fill="#EB5757"/>
<rect width="10" height="57" transform="matrix(1 0 0 -1 171 233)" fill="#20C997"/>
<rect width="10" height="104" transform="matrix(1 0 0 -1 220 233)" fill="#EB5757"/>
<rect width="10" height="57" transform="matrix(1 0 0 -1 230 233)" fill="#20C997"/>
<rect width="10" height="120" transform="matrix(1 0 0 -1 288 233)" fill="#EB5757"/>
<rect width="10" height="81" transform="matrix(1 0 0 -1 298 233)" fill="#20C997"/>
<rect width="10" height="92" transform="matrix(1 0 0 -1 348 233)" fill="#EB5757"/>
<rect width="10" height="66" transform="matrix(1 0 0 -1 358 233)" fill="#20C997"/>
<rect width="10" height="92" transform="matrix(1 0 0 -1 410 233)" fill="#EB5757"/>
<rect width="10" height="104" transform="matrix(1 0 0 -1 420 233)" fill="#20C997"/>
<rect width="10" height="69" transform="matrix(1 0 0 -1 478 233)" fill="#EB5757"/>
<rect width="10" height="120" transform="matrix(1 0 0 -1 488 233)" fill="#20C997"/>
<rect width="10" height="87" transform="matrix(1 0 0 -1 538 233)" fill="#EB5757"/>
<rect width="10" height="64" transform="matrix(1 0 0 -1 548 233)" fill="#20C997"/>
<g filter="url(#filter1_b_0_1)">
<rect width="623" height="270" rx="36" fill="#121212" fill-opacity="0.75"/>
</g>
<path d="M176.359 152V129.6H186.055C188.06 129.6 189.788 129.931 191.239 130.592C192.69 131.232 193.81 132.16 194.599 133.376C195.388 134.592 195.783 136.043 195.783 137.728C195.783 139.392 195.388 140.832 194.599 142.048C193.81 143.264 192.69 144.203 191.239 144.864C189.788 145.504 188.06 145.824 186.055 145.824H179.239L181.543 143.488V152H176.359ZM181.543 144.064L179.239 141.6H185.767C187.367 141.6 188.562 141.259 189.351 140.576C190.14 139.893 190.535 138.944 190.535 137.728C190.535 136.491 190.14 135.531 189.351 134.848C188.562 134.165 187.367 133.824 185.767 133.824H179.239L181.543 131.36V144.064ZM199.101 152V134.784H203.869V139.648L203.197 138.24C203.709 137.024 204.53 136.107 205.661 135.488C206.792 134.848 208.168 134.528 209.789 134.528V139.136C209.576 139.115 209.384 139.104 209.213 139.104C209.042 139.083 208.861 139.072 208.669 139.072C207.304 139.072 206.194 139.467 205.341 140.256C204.509 141.024 204.093 142.229 204.093 143.872V152H199.101ZM220.824 152.256C218.989 152.256 217.357 151.872 215.928 151.104C214.52 150.336 213.4 149.291 212.568 147.968C211.757 146.624 211.352 145.099 211.352 143.392C211.352 141.664 211.757 140.139 212.568 138.816C213.4 137.472 214.52 136.427 215.928 135.68C217.357 134.912 218.989 134.528 220.824 134.528C222.637 134.528 224.259 134.912 225.688 135.68C227.117 136.427 228.237 137.461 229.048 138.784C229.859 140.107 230.264 141.643 230.264 143.392C230.264 145.099 229.859 146.624 229.048 147.968C228.237 149.291 227.117 150.336 225.688 151.104C224.259 151.872 222.637 152.256 220.824 152.256ZM220.824 148.16C221.656 148.16 222.403 147.968 223.064 147.584C223.725 147.2 224.248 146.656 224.632 145.952C225.016 145.227 225.208 144.373 225.208 143.392C225.208 142.389 225.016 141.536 224.632 140.832C224.248 140.128 223.725 139.584 223.064 139.2C222.403 138.816 221.656 138.624 220.824 138.624C219.992 138.624 219.245 138.816 218.584 139.2C217.923 139.584 217.389 140.128 216.984 140.832C216.6 141.536 216.408 142.389 216.408 143.392C216.408 144.373 216.6 145.227 216.984 145.952C217.389 146.656 217.923 147.2 218.584 147.584C219.245 147.968 219.992 148.16 220.824 148.16ZM230.894 152L238.606 141.888L238.51 144.64L231.118 134.784H236.718L241.39 141.216L239.278 141.28L244.11 134.784H249.422L241.998 144.544V141.856L249.678 152H244.014L239.118 145.152L241.198 145.44L236.334 152H230.894ZM252.101 152V134.784H257.093V152H252.101ZM254.597 132.384C253.68 132.384 252.933 132.117 252.357 131.584C251.781 131.051 251.493 130.389 251.493 129.6C251.493 128.811 251.781 128.149 252.357 127.616C252.933 127.083 253.68 126.816 254.597 126.816C255.514 126.816 256.261 127.072 256.837 127.584C257.413 128.075 257.701 128.715 257.701 129.504C257.701 130.336 257.413 131.029 256.837 131.584C256.282 132.117 255.536 132.384 254.597 132.384ZM283.774 134.528C285.139 134.528 286.345 134.805 287.39 135.36C288.457 135.893 289.289 136.725 289.886 137.856C290.505 138.965 290.814 140.395 290.814 142.144V152H285.822V142.912C285.822 141.525 285.534 140.501 284.958 139.84C284.382 139.179 283.571 138.848 282.526 138.848C281.801 138.848 281.15 139.019 280.574 139.36C279.998 139.68 279.55 140.171 279.23 140.832C278.91 141.493 278.75 142.336 278.75 143.36V152H273.758V142.912C273.758 141.525 273.47 140.501 272.894 139.84C272.339 139.179 271.539 138.848 270.494 138.848C269.769 138.848 269.118 139.019 268.542 139.36C267.966 139.68 267.518 140.171 267.198 140.832C266.878 141.493 266.718 142.336 266.718 143.36V152H261.726V134.784H266.494V139.488L265.598 138.112C266.195 136.939 267.038 136.053 268.126 135.456C269.235 134.837 270.494 134.528 271.902 134.528C273.481 134.528 274.857 134.933 276.03 135.744C277.225 136.533 278.014 137.749 278.398 139.392L276.638 138.912C277.214 137.568 278.131 136.501 279.39 135.712C280.67 134.923 282.131 134.528 283.774 134.528ZM305.848 152V148.64L305.528 147.904V141.888C305.528 140.821 305.198 139.989 304.536 139.392C303.896 138.795 302.904 138.496 301.56 138.496C300.643 138.496 299.736 138.645 298.84 138.944C297.966 139.221 297.219 139.605 296.6 140.096L294.808 136.608C295.747 135.947 296.878 135.435 298.2 135.072C299.523 134.709 300.867 134.528 302.232 134.528C304.856 134.528 306.894 135.147 308.344 136.384C309.795 137.621 310.52 139.552 310.52 142.176V152H305.848ZM300.6 152.256C299.256 152.256 298.104 152.032 297.144 151.584C296.184 151.115 295.448 150.485 294.936 149.696C294.424 148.907 294.168 148.021 294.168 147.04C294.168 146.016 294.414 145.12 294.904 144.352C295.416 143.584 296.216 142.987 297.304 142.56C298.392 142.112 299.811 141.888 301.56 141.888H306.136V144.8H302.104C300.931 144.8 300.12 144.992 299.672 145.376C299.246 145.76 299.032 146.24 299.032 146.816C299.032 147.456 299.278 147.968 299.768 148.352C300.28 148.715 300.974 148.896 301.848 148.896C302.68 148.896 303.427 148.704 304.088 148.32C304.75 147.915 305.23 147.328 305.528 146.56L306.296 148.864C305.934 149.973 305.272 150.816 304.312 151.392C303.352 151.968 302.115 152.256 300.6 152.256ZM337.086 134.528C338.452 134.528 339.657 134.805 340.702 135.36C341.769 135.893 342.601 136.725 343.198 137.856C343.817 138.965 344.126 140.395 344.126 142.144V152H339.134V142.912C339.134 141.525 338.846 140.501 338.27 139.84C337.694 139.179 336.884 138.848 335.838 138.848C335.113 138.848 334.462 139.019 333.886 139.36C333.31 139.68 332.862 140.171 332.542 140.832C332.222 141.493 332.062 142.336 332.062 143.36V152H327.07V142.912C327.07 141.525 326.782 140.501 326.206 139.84C325.652 139.179 324.852 138.848 323.806 138.848C323.081 138.848 322.43 139.019 321.854 139.36C321.278 139.68 320.83 140.171 320.51 140.832C320.19 141.493 320.03 142.336 320.03 143.36V152H315.038V134.784H319.806V139.488L318.91 138.112C319.508 136.939 320.35 136.053 321.438 135.456C322.548 134.837 323.806 134.528 325.214 134.528C326.793 134.528 328.169 134.933 329.342 135.744C330.537 136.533 331.326 137.749 331.71 139.392L329.95 138.912C330.526 137.568 331.444 136.501 332.702 135.712C333.982 134.923 335.444 134.528 337.086 134.528ZM357.27 152.256C355.307 152.256 353.579 151.872 352.086 151.104C350.614 150.336 349.473 149.291 348.662 147.968C347.851 146.624 347.446 145.099 347.446 143.392C347.446 141.664 347.841 140.139 348.63 138.816C349.441 137.472 350.539 136.427 351.926 135.68C353.313 134.912 354.881 134.528 356.63 134.528C358.315 134.528 359.83 134.891 361.174 135.616C362.539 136.32 363.617 137.344 364.406 138.688C365.195 140.011 365.59 141.6 365.59 143.456C365.59 143.648 365.579 143.872 365.558 144.128C365.537 144.363 365.515 144.587 365.494 144.8H351.51V141.888H362.87L360.95 142.752C360.95 141.856 360.769 141.077 360.406 140.416C360.043 139.755 359.542 139.243 358.902 138.88C358.262 138.496 357.515 138.304 356.662 138.304C355.809 138.304 355.051 138.496 354.39 138.88C353.75 139.243 353.249 139.765 352.886 140.448C352.523 141.109 352.342 141.899 352.342 142.816V143.584C352.342 144.523 352.545 145.355 352.95 146.08C353.377 146.784 353.963 147.328 354.71 147.712C355.478 148.075 356.374 148.256 357.398 148.256C358.315 148.256 359.115 148.117 359.798 147.84C360.502 147.563 361.142 147.147 361.718 146.592L364.374 149.472C363.585 150.368 362.593 151.061 361.398 151.552C360.203 152.021 358.827 152.256 357.27 152.256ZM379.377 134.528C380.743 134.528 381.959 134.805 383.025 135.36C384.113 135.893 384.967 136.725 385.585 137.856C386.204 138.965 386.513 140.395 386.513 142.144V152H381.521V142.912C381.521 141.525 381.212 140.501 380.593 139.84C379.996 139.179 379.143 138.848 378.033 138.848C377.244 138.848 376.529 139.019 375.889 139.36C375.271 139.68 374.78 140.181 374.417 140.864C374.076 141.547 373.905 142.421 373.905 143.488V152H368.913V134.784H373.681V139.552L372.785 138.112C373.404 136.96 374.289 136.075 375.441 135.456C376.593 134.837 377.905 134.528 379.377 134.528ZM398.078 152.256C396.052 152.256 394.473 151.744 393.342 150.72C392.212 149.675 391.646 148.128 391.646 146.08V130.976H396.638V146.016C396.638 146.741 396.83 147.307 397.214 147.712C397.598 148.096 398.121 148.288 398.782 148.288C399.572 148.288 400.244 148.075 400.798 147.648L402.142 151.168C401.63 151.531 401.012 151.808 400.286 152C399.582 152.171 398.846 152.256 398.078 152.256ZM388.99 139.008V135.168H400.926V139.008H388.99ZM412.957 152.256C410.995 152.256 409.267 151.872 407.773 151.104C406.301 150.336 405.16 149.291 404.349 147.968C403.539 146.624 403.133 145.099 403.133 143.392C403.133 141.664 403.528 140.139 404.317 138.816C405.128 137.472 406.227 136.427 407.613 135.68C409 134.912 410.568 134.528 412.317 134.528C414.003 134.528 415.517 134.891 416.861 135.616C418.227 136.32 419.304 137.344 420.093 138.688C420.883 140.011 421.277 141.6 421.277 143.456C421.277 143.648 421.267 143.872 421.245 144.128C421.224 144.363 421.203 144.587 421.181 144.8H407.197V141.888H418.557L416.637 142.752C416.637 141.856 416.456 141.077 416.093 140.416C415.731 139.755 415.229 139.243 414.589 138.88C413.949 138.496 413.203 138.304 412.349 138.304C411.496 138.304 410.739 138.496 410.077 138.88C409.437 139.243 408.936 139.765 408.573 140.448C408.211 141.109 408.029 141.899 408.029 142.816V143.584C408.029 144.523 408.232 145.355 408.637 146.08C409.064 146.784 409.651 147.328 410.397 147.712C411.165 148.075 412.061 148.256 413.085 148.256C414.003 148.256 414.803 148.117 415.485 147.84C416.189 147.563 416.829 147.147 417.405 146.592L420.061 149.472C419.272 150.368 418.28 151.061 417.085 151.552C415.891 152.021 414.515 152.256 412.957 152.256Z" fill="white"/>
<defs>
<filter id="filter0_b_0_1" x="-4" y="-4" width="631" height="278" filterUnits="userSpaceOnUse" color-interpolation-filters="sRGB">
<feFlood flood-opacity="0" result="BackgroundImageFix"/>
<feGaussianBlur in="BackgroundImageFix" stdDeviation="2"/>
<feComposite in2="SourceAlpha" operator="in" result="effect1_backgroundBlur_0_1"/>
<feBlend mode="normal" in="SourceGraphic" in2="effect1_backgroundBlur_0_1" result="shape"/>
</filter>
<filter id="filter1_b_0_1" x="-4" y="-4" width="631" height="278" filterUnits="userSpaceOnUse" color-interpolation-filters="sRGB">
<feFlood flood-opacity="0" result="BackgroundImageFix"/>
<feGaussianBlur in="BackgroundImageFix" stdDeviation="2"/>
<feComposite in2="SourceAlpha" operator="in" result="effect1_backgroundBlur_0_1"/>
<feBlend mode="normal" in="SourceGraphic" in2="effect1_backgroundBlur_0_1" result="shape"/>
</filter>
</defs>
</svg>
